<svg version="1.1" id="Layer_1" xmlns="http://www.w3.org/2000/svg" xmlns:xlink="http://www.w3.org/1999/xlink" x="0px" y="0px"
	 width="100%" viewBox="0 0 900 900" enable-background="new 0 0 900 900" xml:space="preserve">
<path fill="#FFFEFE" opacity="1.000000" stroke="none" 
	d="
M1.000000,337.000000 
	C1.000000,224.666672 1.000000,112.833336 1.000000,1.000000 
	C301.000000,1.000000 601.000000,1.000000 901.000000,1.000000 
	C901.000000,301.000000 901.000000,601.000000 901.000000,901.000000 
	C601.000000,901.000000 301.000000,901.000000 1.000000,901.000000 
	C1.000000,713.166687 1.000000,525.333313 1.000000,337.000000 
M151.727066,778.018005 
	C151.890320,778.265320 152.119705,778.399841 152.524368,778.489807 
	C152.524368,778.489807 152.601944,778.592590 152.746841,778.980713 
	C152.910095,779.225708 153.136993,779.371826 153.534042,779.481628 
	C153.534042,779.481628 153.604202,779.583252 153.805389,779.995605 
	C154.012802,780.250549 154.280792,780.380859 155.015472,780.046753 
	C154.878769,780.157288 154.742081,780.267883 154.911148,780.961243 
	C157.127533,782.787903 159.343933,784.614502 161.785889,786.240784 
	C161.785889,786.240784 161.606125,786.483093 161.788879,786.950684 
	C162.084290,787.086182 162.379700,787.221680 162.868561,787.132507 
	C162.868561,787.132507 162.635147,787.315308 162.891022,787.931519 
	C166.457520,790.769897 170.024033,793.608215 173.935059,796.101379 
	C173.935059,796.101379 173.615738,796.470032 173.948547,797.022949 
	C176.800598,799.175842 179.652664,801.328674 182.740494,803.129578 
	C182.740494,803.129578 182.547455,803.506714 182.863861,804.072815 
	C185.243744,805.717651 187.623611,807.362488 190.000381,808.997559 
	C190.000381,808.997559 189.989609,808.998230 190.305084,809.583069 
	C192.538651,811.056702 194.772217,812.530334 197.000793,813.997559 
	C197.000793,813.997559 196.992767,813.995544 197.319641,814.578857 
	C206.710724,820.534241 216.101822,826.489685 225.586227,832.439209 
	C225.586227,832.439209 225.607422,832.530273 226.006577,833.043457 
	C248.573669,846.313110 272.149994,857.431152 296.705719,866.521362 
	C336.489716,881.248901 377.614502,889.872681 419.864532,892.574097 
	C470.288879,895.798035 520.035461,890.843872 568.624084,876.750244 
	C584.686218,872.091248 600.226074,865.631714 616.000000,859.999817 
	C616.000000,859.999817 615.993164,859.999878 616.751038,860.016235 
	C621.155029,858.000061 625.559082,855.983887 629.995117,854.002441 
	C629.995117,854.002441 629.972473,853.963379 630.716248,853.944397 
	C639.943298,849.385193 649.381714,845.202026 658.342468,840.168640 
	C668.871216,834.254456 678.985352,827.602112 689.138855,821.151367 
	C689.138855,821.151367 689.220642,821.316040 689.922424,821.219299 
	C693.086121,818.995789 696.249817,816.772278 699.412598,814.452820 
	C699.412598,814.452820 699.504395,814.480469 700.148010,814.280640 
	C704.925903,810.721436 709.703796,807.162231 714.501831,803.495911 
	C714.501831,803.495911 714.610840,803.501160 715.222961,803.269897 
	C717.954529,801.027161 720.686157,798.784424 723.410889,796.446045 
	C723.410889,796.446045 723.500977,796.478882 724.110962,796.274231 
	C725.536133,795.004211 726.961365,793.734192 728.145874,792.206726 
	C728.145874,792.206726 728.422668,792.424988 729.057007,792.216125 
	C731.180115,790.328552 733.303223,788.440979 735.401733,786.448669 
	C735.401733,786.448669 735.500977,786.490295 736.047424,786.325134 
	C736.390747,785.899353 736.734070,785.473511 737.007263,785.007996 
	C737.007263,785.007996 737.045776,785.078796 737.695923,784.908752 
	C739.944763,782.824402 742.193665,780.739990 744.536133,778.544006 
	C744.536133,778.544006 744.660767,778.468628 745.241821,778.203308 
	C753.664551,769.714600 762.087280,761.225891 770.612793,752.594727 
	C770.612793,752.594727 770.733704,752.467224 771.193909,752.241577 
	C771.620667,751.719604 772.047485,751.197632 772.627930,750.530029 
	C772.627930,750.530029 772.736084,750.348145 773.094971,750.185669 
	C773.318420,750.008118 773.425232,749.776733 773.420593,749.401428 
	C773.420593,749.401428 773.510681,749.404785 774.103333,749.141846 
	C776.229919,746.596436 778.356445,744.051025 780.461365,741.411743 
	C780.461365,741.411743 780.557556,741.407166 780.990417,741.245483 
	C781.265686,741.054932 781.408386,740.792297 781.375488,740.338013 
	C781.375488,740.338013 781.486816,740.399292 782.069214,740.115051 
	C784.880005,736.595703 787.690857,733.076355 790.502014,729.451599 
	C790.502014,729.451599 790.604858,729.428589 791.145325,729.114319 
	C792.267883,727.599121 793.390442,726.083923 794.507385,724.462219 
	C794.507385,724.462219 794.609070,724.430359 795.149231,724.094421 
	C798.771606,719.063416 802.393982,714.032410 805.997437,708.999023 
	C805.997437,708.999023 806.002258,709.017944 806.614868,708.740295 
	C812.884888,698.930115 819.154968,689.119934 825.100281,679.109863 
	C825.100281,679.109863 825.398193,679.347717 825.977478,679.019958 
	C829.099609,673.521118 832.336609,668.083923 835.325684,662.513550 
	C859.477295,617.505859 875.614563,569.797913 882.356079,519.139648 
	C884.699646,501.528900 885.303711,483.686646 886.878723,465.140564 
	C886.843018,463.764099 886.807251,462.387604 886.997070,460.131378 
	C886.919128,457.420532 886.841187,454.709686 886.907776,451.344727 
	C886.855347,450.904083 886.802917,450.463470 886.923096,449.500458 
	C886.859070,449.328613 886.794983,449.156799 886.872559,448.346710 
	C886.822266,447.916626 886.771973,447.486511 886.933105,446.132233 
	C886.104675,413.202545 882.072876,380.663391 873.478699,348.862915 
	C869.111389,332.703186 863.195618,316.961945 858.004211,301.010406 
	C858.004211,301.010406 857.974670,301.014374 858.032288,300.245453 
	C849.270203,277.009094 838.584595,254.675842 825.506348,233.581940 
	C817.909485,221.328903 809.398865,209.642380 801.059814,197.901642 
	C801.059814,197.901642 801.325806,197.737350 801.273315,197.251129 
	C801.145386,196.925415 800.915588,196.706741 800.491211,196.550568 
	C800.491211,196.550568 800.498779,196.447968 800.274414,195.838287 
	C799.284241,194.675674 798.294128,193.513077 797.281616,192.122330 
	C797.281616,192.122330 797.081726,192.010132 796.947449,191.329132 
	C794.781860,188.759155 792.616272,186.189178 790.312134,183.692032 
	C790.312134,183.692032 790.394470,183.558884 790.211670,182.939972 
	C788.950134,181.503616 787.688599,180.067261 786.191895,178.827393 
	C786.191895,178.827393 786.386719,178.590866 786.283020,178.112930 
	C786.111023,177.802155 785.848633,177.626556 785.265869,177.708832 
	C785.265869,177.708832 785.455383,177.529938 785.251892,176.906219 
	C783.685730,175.130020 782.119507,173.353836 780.451721,171.540588 
	C780.451721,171.540588 780.406311,171.442322 780.279724,171.027145 
	C780.114624,170.760422 779.875916,170.612167 779.466187,170.573868 
	C779.466187,170.573868 779.491150,170.479340 779.319824,169.938568 
	C778.901001,169.594788 778.482117,169.251022 778.014954,168.991394 
	C778.014954,168.991394 778.095276,168.936874 777.897217,168.297134 
	C775.788635,166.058121 773.680054,163.819107 771.467346,161.530365 
	C771.467346,161.530365 771.412842,161.428619 771.287842,161.034363 
	C771.130920,160.785019 770.907227,160.635498 770.506592,160.477020 
	C770.506592,160.477020 770.403870,160.361115 770.281982,159.982407 
	C770.126831,159.741821 769.906921,159.607025 769.511108,159.471039 
	C769.511108,159.471039 769.410828,159.353943 769.317871,159.006683 
	C769.187317,158.785355 768.995667,158.651566 768.633118,158.458893 
	C768.633118,158.458893 768.522583,158.312897 768.325073,157.816284 
	C767.908813,157.508530 767.492493,157.200775 767.015137,156.979584 
	C767.015137,156.979584 767.108093,156.928741 766.940796,156.274765 
	C761.318115,150.816208 755.695496,145.357635 750.008423,139.986542 
	C750.008423,139.986542 750.099121,139.926697 749.971985,139.384186 
	C749.516418,139.082870 749.060852,138.781570 748.489075,138.451248 
	C748.489075,138.451248 748.446777,138.339249 748.166321,137.769943 
	C744.291748,134.356354 740.417236,130.942780 736.439758,127.515007 
	C736.439758,127.515007 736.412598,127.414742 736.075439,126.880379 
	C734.236694,125.423073 732.398010,123.965767 730.453369,122.499496 
	C730.453369,122.499496 730.428467,122.396156 730.135559,121.830345 
	C714.042786,110.128166 698.207520,98.047058 681.757751,86.870285 
	C672.355652,80.482018 661.953186,75.566185 652.004028,70.003716 
	C652.004028,70.003716 652.019043,69.993538 651.586060,69.480125 
	C650.583435,68.894302 649.607788,68.255287 648.574219,67.730286 
	C593.874084,39.944050 535.905151,24.067650 474.653320,20.612148 
	C448.069977,19.112461 421.465973,19.257053 394.339691,23.004915 
	C393.905823,23.123302 393.471924,23.241688 392.239563,23.189356 
	C390.652679,23.484238 389.065796,23.779121 387.632507,24.045465 
	C387.632507,54.952694 387.632507,85.353577 387.632507,116.197464 
	C393.432129,115.391319 398.799957,114.400467 404.212860,113.940605 
	C418.121338,112.758987 432.049805,111.812881 446.838654,110.940163 
	C448.896088,110.890030 450.953522,110.839897 453.847900,111.054756 
	C502.991974,112.037460 550.033997,122.362038 594.607605,143.209259 
	C606.299561,148.677643 617.563110,155.062119 629.164185,161.257401 
	C629.164185,161.257401 629.434875,161.245010 629.799255,161.844849 
	C635.373108,165.391663 640.946899,168.938492 646.609924,172.442215 
	C646.609924,172.442215 646.602295,172.540939 646.978882,173.059433 
	C651.820068,176.537445 656.661194,180.015457 661.592407,183.456696 
	C661.592407,183.456696 661.585144,183.553665 661.921204,184.097015 
	C665.104919,186.562759 668.288696,189.028503 671.572632,191.486084 
	C671.572632,191.486084 671.593445,191.584412 671.756165,192.020859 
	C671.960327,192.292679 672.232178,192.420349 672.753845,192.296570 
	C672.753845,192.296570 672.619080,192.459457 672.923035,193.026672 
	C674.757507,194.516083 676.592041,196.005493 678.540588,197.531769 
	C678.540588,197.531769 678.601990,197.634659 678.740173,198.030304 
	C678.914368,198.277954 679.152710,198.406876 679.552917,198.452011 
	C679.552917,198.452011 679.581726,198.551727 679.869873,199.127487 
	C683.236145,202.104202 686.602417,205.080902 689.995850,208.000153 
	C689.995850,208.000153 689.941467,208.032883 690.104553,208.571320 
	C690.560303,208.880478 691.016052,209.189621 691.571228,209.476761 
	C691.571228,209.476761 691.550598,209.576462 691.722107,210.090988 
	C692.266785,210.547577 692.811462,211.004150 693.485046,211.567627 
	C693.485046,211.567627 693.612549,211.676117 693.743164,212.041275 
	C693.900635,212.271301 694.118225,212.397583 694.506958,212.508896 
	C694.506958,212.508896 694.597473,212.618317 694.731934,213.009369 
	C694.896423,213.256958 695.126648,213.394684 695.527771,213.489517 
	C695.527771,213.489517 695.593140,213.595779 695.728149,214.006287 
	C695.901611,214.266495 696.144409,214.405029 696.555908,214.461227 
	C696.555908,214.461227 696.594421,214.560883 696.724976,214.982544 
	C696.896729,215.251373 697.141541,215.398453 697.558228,215.453323 
	C697.558228,215.453323 697.589661,215.551407 697.688171,215.949249 
	C697.831970,216.207199 698.049744,216.359100 698.444641,216.505066 
	C698.444641,216.505066 698.512329,216.631943 698.778931,217.217148 
	C702.511230,221.159180 706.243530,225.101212 710.000488,229.000244 
	C710.000488,229.000244 709.953735,229.016312 710.061707,229.551773 
	C710.357849,229.735107 710.653992,229.918442 710.981934,230.020309 
	C710.981934,230.020309 710.904846,230.061630 711.086731,230.700165 
	C712.718628,232.479599 714.350464,234.259033 716.004456,236.002655 
	C716.004456,236.002655 715.963867,236.013687 716.077637,236.653397 
	C717.221802,237.902710 718.366028,239.152023 719.853760,240.073776 
	C719.853760,240.073776 719.538391,240.428574 719.685120,240.983978 
	C720.103210,241.351608 720.521362,241.719254 720.994995,242.016129 
	C720.994995,242.016129 720.912781,242.052628 721.013428,242.676880 
	C721.850891,243.584167 722.688293,244.491455 723.882507,245.091431 
	C723.882507,245.091431 723.552063,245.426941 723.732300,246.083084 
	C727.480225,251.070648 731.228149,256.058228 735.004639,261.005768 
	C735.004639,261.005768 734.957153,261.018097 735.055298,261.711395 
	C738.537598,266.936188 742.019836,272.160980 745.810791,277.233215 
	C745.810791,277.233215 745.531250,277.434296 745.691528,278.113495 
	C746.008057,278.698090 746.303589,279.295166 746.644043,279.865448 
	C764.317688,309.468964 778.026489,340.823639 785.254761,374.544678 
	C789.734741,395.444183 791.938477,416.831635 795.051331,438.744843 
	C795.144348,439.486755 795.237305,440.228638 795.125061,441.890625 
	C795.202515,451.938812 795.279968,461.987030 795.142212,472.753571 
	C795.147827,473.499542 795.153381,474.245483 794.880859,475.787476 
	C792.348755,520.943420 781.523865,564.014648 761.867981,604.748413 
	C755.965271,616.980896 749.040588,628.720276 742.920898,640.896667 
	C742.920898,640.896667 742.608582,640.650696 742.013611,640.932007 
	C740.887695,642.864502 739.761841,644.796997 738.881165,646.897217 
	C738.881165,646.897217 738.670471,646.687805 738.089233,647.002991 
	C734.709778,651.994568 731.330322,656.986145 728.002075,661.997070 
	C728.002075,661.997070 727.973755,661.950073 727.419739,662.158081 
	C727.150391,662.672180 726.881104,663.186279 726.926086,663.909729 
	C726.926086,663.909729 726.637024,663.666748 726.046753,663.950684 
	C724.218445,666.501770 722.390198,669.052795 720.906433,672.015991 
	C720.786072,671.883118 720.665710,671.750305 719.972473,671.887939 
	C718.966309,673.251892 717.960205,674.615845 717.003479,675.995667 
	C717.003479,675.995667 716.975403,675.951721 716.452820,676.171326 
	C716.150330,676.639465 715.847900,677.107544 715.764832,677.889099 
	C715.764832,677.889099 715.505920,677.607422 714.954102,677.938477 
	C710.480713,683.081421 706.007385,688.224426 701.504883,693.479736 
	C701.504883,693.479736 701.394531,693.515808 700.857605,693.761230 
	C700.243835,694.511047 699.630005,695.260925 699.000000,696.000000 
	C699.000000,696.000000 699.010986,696.016418 698.473511,696.183167 
	C698.161255,696.638794 697.848999,697.094482 697.755737,697.784851 
	C697.755737,697.784851 697.496216,697.595947 697.052002,697.764709 
	C696.772888,697.963135 696.624695,698.233398 696.936401,699.018250 
	C696.823242,698.872437 696.710083,698.726685 695.992920,698.819397 
	C694.527893,700.382751 693.062866,701.946167 691.595032,703.598206 
	C691.595032,703.598206 691.506592,703.604675 691.050354,703.749512 
	C690.758484,703.941101 690.608704,704.211426 690.732361,704.758545 
	C690.732361,704.758545 690.549500,704.606873 690.118469,704.682800 
	C689.836670,704.822144 689.661499,705.045105 689.503052,705.459106 
	C689.503052,705.459106 689.382935,705.531067 688.899231,705.761536 
	C688.439880,706.296753 687.980530,706.831970 687.472534,707.480347 
	C687.472534,707.480347 687.355713,707.519470 686.776611,707.802002 
	C683.712646,710.696045 680.648743,713.590088 677.816772,716.731873 
	C677.816772,716.731873 677.545227,716.528381 676.998169,716.689209 
	C676.636230,717.105347 676.274292,717.521423 675.987244,717.993347 
	C675.987244,717.993347 675.943176,717.910950 675.293640,718.057373 
	C673.506042,719.690125 671.718445,721.322815 669.986511,723.001282 
	C669.986511,723.001282 669.964600,722.932617 669.322754,723.047974 
	C668.084229,724.208984 666.845703,725.370056 665.884949,726.833374 
	C665.884949,726.833374 665.575012,726.564148 664.927002,726.749451 
	C662.148315,728.997925 659.369690,731.246460 656.784546,733.723938 
	C656.784546,733.723938 656.546875,733.541138 655.948547,733.677002 
	C655.183289,734.323425 654.417969,734.969788 653.878479,735.990906 
	C653.878479,735.990906 653.628357,735.631653 652.974182,735.819336 
	C644.994019,741.223572 637.013794,746.627808 629.002441,752.000000 
	C629.002441,752.000000 629.027954,752.034180 628.319519,752.079956 
	C625.194763,754.042542 622.070068,756.005188 618.985840,758.006592 
	C618.985840,758.006592 618.977722,757.951233 618.256287,758.003662 
	C575.505554,781.782593 529.788879,796.121765 481.076752,800.567688 
	C425.778290,805.614746 372.158051,798.266479 320.504944,777.657471 
	C309.878876,773.417847 299.508972,768.536377 289.010040,764.005249 
	C289.010040,764.005249 289.053040,763.969849 288.695740,763.392517 
	C285.126373,761.565430 281.557007,759.738342 277.861786,757.702087 
	C277.861786,757.702087 277.617828,757.695679 277.214478,757.119751 
	C265.938110,749.935059 254.661743,742.750366 243.032043,735.971741 
	C243.144608,735.832031 243.257187,735.692383 243.019821,735.008606 
	C237.695007,730.978882 232.370193,726.949097 227.015747,722.996765 
	C227.015747,722.996765 227.081284,722.945984 226.849808,722.411133 
	C226.361618,722.124817 225.873413,721.838440 225.100159,721.983765 
	C225.192474,721.840149 225.284790,721.696594 225.173538,721.081421 
	C224.871689,720.942444 224.569839,720.803467 224.128159,720.931702 
	C224.128159,720.931702 224.309570,720.690857 224.066559,720.095642 
	C222.717850,719.048401 221.369141,718.001221 220.004318,717.003357 
	C220.004318,717.003357 220.048264,716.975647 219.772568,716.365356 
	C216.432770,713.410095 213.092957,710.454895 209.604523,707.365417 
	C209.604523,707.365417 209.445816,707.243225 209.199493,706.718140 
	C208.311188,705.996277 207.422882,705.274414 206.435913,704.546326 
	C206.435913,704.546326 206.409042,704.451172 206.280640,704.021545 
	C206.106552,703.747192 205.857422,703.599182 205.438263,703.554688 
	C205.438263,703.554688 205.432755,703.457214 205.214554,702.900085 
	C204.321640,702.122620 203.428711,701.345154 202.437241,700.550903 
	C202.437241,700.550903 202.408142,700.455200 202.290207,700.034485 
	C202.126556,699.764465 201.887726,699.613098 201.468689,699.514160 
	C201.468689,699.514160 201.402054,699.409363 201.241028,698.984741 
	C201.043915,698.720215 200.780457,698.591370 200.324905,698.655640 
	C200.324905,698.655640 200.391678,698.534546 200.302460,698.091858 
	C200.151978,697.800354 199.914398,697.631104 199.481766,697.505310 
	C199.481766,697.505310 199.401550,697.398499 199.271576,697.005737 
	C199.110062,696.756409 198.881683,696.615356 198.487213,696.557129 
	C198.487213,696.557129 198.491394,696.454712 198.295700,695.934387 
	C197.877533,695.602966 197.459351,695.271606 197.002151,694.997864 
	C197.002151,694.997864 197.060257,694.959351 196.947556,694.439575 
	C196.536880,694.119934 196.126221,693.800293 195.585175,693.396912 
	C195.585175,693.396912 195.502029,693.266174 195.224396,692.697510 
	C192.620117,689.987000 190.015839,687.276428 186.961395,684.851196 
	C187.108246,684.750366 187.255096,684.649536 187.324661,684.118652 
	C187.183746,683.838440 186.960266,683.664307 186.554153,683.502869 
	C186.554153,683.502869 186.501099,683.376648 186.264221,682.780457 
	C184.654312,681.039307 183.044403,679.298096 181.161606,677.984802 
	C181.262161,677.848816 181.362717,677.712769 181.316376,677.018982 
	C180.902588,676.644531 180.488785,676.270081 180.013794,675.977478 
	C180.013794,675.977478 180.106247,675.933960 180.001572,675.302002 
	C179.111099,674.426880 178.220642,673.551758 177.074066,672.891663 
	C177.074066,672.891663 177.357437,672.714111 177.216629,672.040771 
	C174.956802,669.237671 172.696960,666.434631 169.999756,663.990295 
	C170.144135,663.868774 170.288513,663.747314 170.316162,663.050720 
	C169.896454,662.672424 169.476746,662.294128 169.006577,661.987488 
	C169.006577,661.987488 169.085403,661.949280 168.964371,661.276001 
	C167.336075,659.148804 165.707764,657.021545 164.012146,654.973633 
	C164.012146,654.973633 164.108292,654.934021 164.012192,654.239197 
	C161.510132,650.696899 159.008072,647.154602 156.259888,643.724304 
	C156.259888,643.724304 156.470779,643.555054 156.283615,642.888550 
	C155.692978,641.882874 155.126633,640.862000 154.508163,639.873718 
	C119.239647,583.509521 101.775978,522.004211 101.676277,455.595276 
	C101.546165,368.929321 101.633354,282.263031 101.615570,195.596893 
	C101.615242,194.018311 101.471779,192.439743 101.317253,189.258698 
	C98.149071,193.856918 95.843063,197.203781 93.710938,200.776505 
	C93.710938,200.776505 93.489838,200.596619 92.919464,200.901566 
	C91.468559,203.144684 90.017654,205.387802 89.006439,207.973801 
	C88.860558,207.857635 88.714668,207.741486 87.988914,207.924088 
	C70.495331,232.572601 56.110336,258.959961 44.313148,286.748566 
	C23.556597,335.641235 11.983742,386.724884 10.451481,439.756683 
	C9.805609,462.110504 12.168480,484.551270 13.091743,507.654968 
	C13.231264,508.099060 13.370785,508.543121 13.303897,509.806183 
	C17.835737,548.201599 27.517866,585.279602 42.161343,621.032837 
	C55.964321,654.733887 73.418037,686.412231 95.863914,715.396301 
	C95.863914,715.396301 95.543159,715.483887 95.794998,716.102661 
	C99.353142,720.537598 102.911278,724.972595 106.567009,729.390808 
	C106.567009,729.390808 106.532272,729.483521 106.727898,730.103210 
	C108.014206,731.545654 109.300507,732.988037 110.805756,733.967346 
	C110.725113,734.118103 110.644463,734.268860 110.745819,735.064209 
	C112.699928,737.184082 114.654030,739.303955 116.994301,741.049500 
	C116.865440,741.176025 116.736580,741.302612 116.669922,741.863403 
	C116.802673,742.150208 117.022926,742.329285 117.434769,742.505310 
	C117.434769,742.505310 117.507011,742.633972 117.774925,743.222229 
	C120.628906,746.302612 123.482880,749.382996 126.452339,752.520752 
	C126.452339,752.520752 126.501060,752.640076 126.770462,753.224365 
	C134.285553,760.654114 141.800644,768.083862 149.464600,775.647705 
	C149.464600,775.647705 149.631943,775.757812 149.761490,776.091675 
	C149.912506,776.301208 150.117020,776.411560 150.490738,776.524048 
	C150.490738,776.524048 150.596832,776.635376 150.716782,777.018982 
	C150.873734,777.263123 151.096832,777.397156 151.499069,777.517395 
	C151.499069,777.517395 151.597900,777.628296 151.727066,778.018005 
M413.065186,374.494202 
	C432.319916,366.510132 451.994537,365.018799 472.191406,370.449097 
	C522.826721,384.063232 550.656555,437.953369 532.637268,487.606659 
	C515.067810,536.020203 458.033295,559.930237 411.343414,537.694214 
	C377.457001,521.555847 359.224304,494.070251 359.122955,456.348358 
	C358.746429,316.202606 358.901245,176.055420 358.856628,35.908768 
	C358.855927,33.767056 358.856537,31.625340 358.856537,29.424812 
	C357.971893,29.424812 357.468933,29.340498 357.003357,29.436859 
	C328.224457,35.393215 300.460602,44.498653 273.442078,56.029240 
	C269.577881,57.678341 268.478577,59.719982 268.481903,63.770947 
	C268.588898,194.252884 268.421295,324.735352 268.790558,455.216339 
	C268.829285,468.910248 270.520966,482.946930 273.845642,496.223663 
	C287.938599,552.501709 321.479767,593.828491 374.308868,617.613220 
	C433.884613,644.435547 492.717010,640.255737 547.866699,605.160339 
	C595.044678,575.137878 622.144531,531.254700 629.318115,475.551971 
	C633.704651,441.490845 628.736572,408.643219 613.844666,377.748627 
	C573.202576,293.433197 481.712463,254.444077 392.288696,282.730774 
	C388.679047,283.872589 387.282593,285.271698 387.303436,289.219788 
	C387.469757,320.714539 387.390045,352.210541 387.385773,383.706177 
	C387.385498,385.745392 387.385773,387.784576 387.385773,389.593109 
	C396.139618,384.421631 404.260468,379.624084 413.065186,374.494202 
z"/>
<path fill="#E2011B" opacity="1.000000" stroke="none" 
	d="
M886.721680,447.056427 
	C886.771973,447.486511 886.822266,447.916626 886.651917,448.763000 
	C886.537659,449.460510 886.644043,449.741669 886.750488,450.022827 
	C886.802917,450.463470 886.855347,450.904083 886.591064,451.975250 
	C886.440063,455.407562 886.605835,458.209351 886.771545,461.011139 
	C886.807251,462.387604 886.843018,463.764099 886.430359,465.668915 
	C885.697266,466.590820 885.198181,466.964020 885.158569,467.380829 
	C883.424988,485.643616 882.119629,503.957611 879.897522,522.159790 
	C878.421692,534.248718 876.431885,546.391846 873.261414,558.129700 
	C868.484619,575.814758 863.389099,593.523376 856.742371,610.564148 
	C849.497986,629.137207 840.332703,646.961243 831.996582,665.108093 
	C829.812866,669.861877 827.598511,674.601562 825.398193,679.347717 
	C825.398193,679.347717 825.100281,679.109863 824.914795,679.255005 
	C818.501770,688.780762 812.267334,698.156738 806.074341,707.560059 
	C805.843811,707.910095 806.017090,708.525940 806.002258,709.017944 
	C806.002258,709.017944 805.997437,708.999023 805.657349,709.021484 
	C802.546326,712.376648 799.647644,715.614258 797.062988,719.085571 
	C795.917786,720.623535 795.407532,722.634216 794.609009,724.430359 
	C794.609070,724.430359 794.507385,724.462219 794.149658,724.437500 
	C792.729553,726.084717 791.667175,727.756653 790.604858,729.428589 
	C790.604858,729.428589 790.502014,729.451599 790.150269,729.426636 
	C787.027954,733.067505 784.257385,736.733398 781.486816,740.399292 
	C781.486816,740.399292 781.375488,740.338013 781.104004,740.371216 
	C780.740845,740.738647 780.649231,741.072876 780.557556,741.407166 
	C780.557556,741.407166 780.461365,741.411743 780.120361,741.393555 
	C777.689758,744.051880 775.600220,746.728333 773.510681,749.404785 
	C773.510681,749.404785 773.420593,749.401428 773.143066,749.409790 
	C772.822388,749.728088 772.779236,750.038147 772.736084,750.348145 
	C772.736084,750.348145 772.627930,750.530029 772.218994,750.494385 
	C771.451233,751.128235 771.092468,751.797729 770.733704,752.467224 
	C770.733704,752.467224 770.612793,752.594727 770.231445,752.536560 
	C761.341125,760.670898 752.826904,768.858032 744.359619,777.093323 
	C744.182068,777.266052 744.548218,777.997681 744.660767,778.468628 
	C744.660767,778.468628 744.536133,778.544006 744.148376,778.436035 
	C741.522400,780.578369 739.284119,782.828613 737.045776,785.078857 
	C737.045776,785.078796 737.007263,785.007996 736.709839,785.033081 
	C736.108582,785.535583 735.804749,786.012939 735.500977,786.490295 
	C735.500977,786.490295 735.401733,786.448669 735.065063,786.362061 
	C732.626465,788.325317 730.524536,790.375122 728.422607,792.424927 
	C728.422668,792.424988 728.145874,792.206726 727.911621,792.219482 
	C726.285156,793.647827 724.893066,795.063293 723.500977,796.478882 
	C723.500977,796.478882 723.410889,796.446045 723.062378,796.353821 
	C720.012878,798.674805 717.311829,801.087952 714.610840,803.501160 
	C714.610840,803.501160 714.501831,803.495911 714.134888,803.449707 
	C709.013367,807.095825 704.258911,810.788147 699.504395,814.480469 
	C699.504395,814.480469 699.412598,814.452820 699.057434,814.361816 
	C695.541748,816.619263 692.381165,818.967651 689.220642,821.316040 
	C689.220642,821.316040 689.138855,821.151367 688.834106,821.145996 
	C685.473999,822.712402 682.377686,824.210022 679.370239,825.868835 
	C665.978699,833.255066 652.593262,840.652771 639.251465,848.128052 
	C636.067932,849.911682 633.060730,852.009827 629.972473,853.963379 
	C629.972473,853.963379 629.995117,854.002441 629.581055,853.969727 
	C624.775696,855.958008 620.384460,857.978943 615.993164,859.999878 
	C615.993164,859.999878 616.000000,859.999817 615.598999,859.971497 
	C604.473816,863.349487 593.823853,867.015747 583.008301,870.102173 
	C566.062561,874.937805 549.183411,880.270264 531.942871,883.732971 
	C515.807739,886.973572 499.284943,888.648499 482.848175,889.914917 
	C467.877441,891.068420 452.794556,890.870361 437.758514,891.047302 
	C418.174042,891.277771 398.699036,889.915710 379.468903,886.015015 
	C362.683716,882.610352 345.798859,879.570068 329.207428,875.381042 
	C317.780304,872.495850 306.754425,867.994568 295.592896,864.090820 
	C274.808899,856.821594 254.996109,847.440918 235.838959,836.605652 
	C232.672913,834.814941 229.029968,833.867432 225.607422,832.530273 
	C225.607422,832.530273 225.586227,832.439209 225.649811,832.084900 
	C219.012955,827.261780 212.371246,822.700928 205.583023,818.369690 
	C202.886871,816.649475 199.865860,815.438416 196.992767,813.995544 
	C196.992767,813.995544 197.000793,813.997559 196.976654,813.645142 
	C194.631546,811.861267 192.310577,810.429749 189.989594,808.998230 
	C189.989609,808.998230 190.000381,808.997559 189.971298,808.654175 
	C187.477295,806.709412 185.012360,805.108093 182.547440,803.506714 
	C182.547455,803.506714 182.740494,803.129578 182.677521,802.950806 
	C179.614944,800.671326 176.615356,798.570679 173.615753,796.470032 
	C173.615738,796.470032 173.935059,796.101379 173.795212,795.918823 
	C169.981964,792.929321 166.308548,790.122314 162.635132,787.315308 
	C162.635147,787.315308 162.868561,787.132507 162.751236,786.952332 
	C162.291321,786.675781 161.948715,786.579468 161.606110,786.483154 
	C161.606125,786.483093 161.785889,786.240784 161.714691,785.987427 
	C159.297470,783.948914 156.951416,782.163696 154.605377,780.378418 
	C154.742081,780.267883 154.878769,780.157288 154.814270,779.925842 
	C154.276794,779.731018 153.940491,779.657166 153.604202,779.583252 
	C153.604202,779.583252 153.534042,779.481628 153.546021,779.171265 
	C153.239319,778.771423 152.920624,778.682007 152.601944,778.592590 
	C152.601944,778.592590 152.524368,778.489807 152.538147,778.177246 
	C152.233917,777.785828 151.915909,777.707031 151.597900,777.628296 
	C151.597900,777.628296 151.499069,777.517395 151.520782,777.194214 
	C151.227264,776.792542 150.912048,776.713928 150.596832,776.635376 
	C150.596832,776.635376 150.490738,776.524048 150.514832,776.206726 
	C150.236588,775.845581 149.934265,775.801697 149.631943,775.757812 
	C149.631943,775.757812 149.464600,775.647705 149.510406,775.244995 
	C142.343216,767.443176 135.136948,760.037537 127.886925,752.674927 
	C127.653679,752.438110 126.973106,752.641785 126.501060,752.640076 
	C126.501060,752.640076 126.452339,752.520752 126.563614,752.150696 
	C123.618935,748.731750 120.562981,745.682861 117.507019,742.633972 
	C117.507011,742.633972 117.434769,742.505310 117.477913,742.183899 
	C117.216614,741.718018 116.912170,741.573608 116.607727,741.429199 
	C116.736580,741.302612 116.865440,741.176025 116.827820,740.876831 
	C114.628838,738.609375 112.596329,736.514526 110.563812,734.419678 
	C110.644463,734.268860 110.725113,734.118103 110.734436,733.838440 
	C109.286171,732.300842 107.909233,730.892151 106.532280,729.483521 
	C106.532272,729.483521 106.567009,729.390808 106.655685,729.045593 
	C103.010635,724.294861 99.276901,719.889343 95.543167,715.483887 
	C95.543159,715.483887 95.863914,715.396301 95.751831,715.047424 
	C90.248688,706.185913 85.015434,697.568298 79.435806,689.181152 
	C65.017479,667.507874 53.380917,644.349243 43.766235,620.264099 
	C37.155037,603.702820 31.694927,586.644897 26.484802,569.575684 
	C23.489693,559.763184 21.802841,549.525391 19.927086,539.404968 
	C18.304472,530.650391 17.326073,521.777893 15.858510,512.991638 
	C15.620368,511.565826 14.319804,510.317535 13.510310,508.987213 
	C13.370785,508.543121 13.231264,508.099060 13.392067,506.997803 
	C13.765970,503.524200 14.045370,500.695190 13.875097,497.893555 
	C13.333337,488.979553 12.146358,480.078735 12.089833,471.167267 
	C12.001445,457.231995 12.341242,443.277222 13.049314,429.358673 
	C13.677281,417.014740 14.161990,404.551270 16.305784,392.422638 
	C19.649868,373.503296 23.119675,354.443970 28.781301,336.138336 
	C35.529392,314.319885 43.532616,292.721802 53.069904,271.983795 
	C61.610104,253.413910 72.993721,236.154022 83.068169,218.285339 
	C85.030594,214.804672 86.741737,211.182327 88.568779,207.625320 
	C88.714668,207.741486 88.860558,207.857635 89.148209,207.816711 
	C90.689934,205.305298 92.089882,202.950958 93.489838,200.596619 
	C93.489838,200.596619 93.710938,200.776505 93.977448,200.703827 
	C95.730110,199.241226 97.216263,197.851303 99.490608,195.724243 
	C99.720100,198.714127 100.016006,200.774277 100.016541,202.834488 
	C100.039902,292.987183 100.036331,383.139893 100.043121,473.292603 
	C100.043259,475.123230 99.949921,476.978424 100.200043,478.780548 
	C102.098785,492.461334 103.573151,506.226898 106.157082,519.779724 
	C108.982323,534.598206 112.253601,549.392517 116.475845,563.863159 
	C119.456787,574.079529 123.828079,583.991394 128.501587,593.589844 
	C136.078461,609.151123 144.366714,624.368042 152.496201,639.655090 
	C153.327179,641.217712 155.122772,642.267395 156.470779,643.555054 
	C156.470779,643.555054 156.259888,643.724304 156.247833,644.026672 
	C158.859955,647.864014 161.484116,651.399048 164.108276,654.934021 
	C164.108292,654.934021 164.012146,654.973633 164.011093,655.307983 
	C165.701828,657.744690 167.393616,659.846985 169.085403,661.949280 
	C169.085403,661.949280 169.006577,661.987488 169.030167,662.281555 
	C169.513458,662.925659 169.973175,663.275757 170.432892,663.625793 
	C170.288513,663.747314 170.144135,663.868774 170.108627,664.170349 
	C172.597473,667.138306 174.977448,669.926208 177.357437,672.714111 
	C177.357437,672.714111 177.074066,672.891663 177.125549,673.145691 
	C178.153442,674.244446 179.129852,675.089172 180.106262,675.933960 
	C180.106247,675.933960 180.013794,675.977478 180.038803,676.269653 
	C180.530289,676.900146 180.996780,677.238403 181.463257,677.576660 
	C181.362717,677.712769 181.262161,677.848816 181.252441,678.131836 
	C183.062531,679.978088 184.781799,681.677368 186.501099,683.376648 
	C186.501099,683.376648 186.554153,683.502869 186.513062,683.822144 
	C186.781967,684.277222 187.091965,684.413025 187.401947,684.548767 
	C187.255096,684.649536 187.108246,684.750366 187.150116,685.069153 
	C190.059906,687.946838 192.780960,690.606506 195.502014,693.266174 
	C195.502029,693.266174 195.585175,693.396912 195.542694,693.747131 
	C196.020233,694.384705 196.540237,694.671997 197.060257,694.959351 
	C197.060257,694.959351 197.002151,694.997864 197.031189,695.298523 
	C197.537277,695.884338 198.014343,696.169556 198.491394,696.454712 
	C198.491394,696.454712 198.487213,696.557129 198.468033,696.847656 
	C198.766418,697.224976 199.083984,697.311707 199.401550,697.398499 
	C199.401550,697.398499 199.481766,697.505310 199.461884,697.825012 
	C199.758560,698.274658 200.075119,698.404602 200.391678,698.534546 
	C200.391678,698.534546 200.324905,698.655640 200.367096,698.915100 
	C200.740219,699.252808 201.071136,699.331116 201.402039,699.409424 
	C201.402054,699.409363 201.468689,699.514160 201.455688,699.829712 
	C201.764511,700.248535 202.086334,700.351868 202.408142,700.455200 
	C202.408142,700.455200 202.437241,700.550903 202.357056,700.934937 
	C203.328842,702.031738 204.380798,702.744446 205.432770,703.457214 
	C205.432755,703.457214 205.438263,703.554688 205.431915,703.854248 
	C205.753403,704.252869 206.081223,704.351990 206.409042,704.451172 
	C206.409042,704.451172 206.435913,704.546326 206.354462,704.932129 
	C207.330627,705.959717 208.388229,706.601440 209.445831,707.243225 
	C209.445816,707.243225 209.604523,707.365417 209.537476,707.758789 
	C212.996384,711.093384 216.522324,714.034485 220.048264,716.975647 
	C220.048264,716.975647 220.004318,717.003357 220.033356,717.336670 
	C221.478119,718.676880 222.893845,719.683899 224.309570,720.690857 
	C224.309570,720.690857 224.128159,720.931702 224.235382,721.089417 
	C224.687439,721.349060 225.032272,721.451050 225.377090,721.552979 
	C225.284790,721.696594 225.192474,721.840149 225.247635,722.097290 
	C225.957169,722.455872 226.519226,722.700928 227.081284,722.945984 
	C227.081284,722.945984 227.015747,722.996765 227.044617,723.309265 
	C230.067719,726.410828 232.887222,729.427551 236.118469,731.907776 
	C238.226181,733.525818 240.931915,734.364746 243.369766,735.552673 
	C243.257187,735.692383 243.144608,735.832031 243.185272,736.126343 
	C250.118362,741.131226 256.736847,746.232178 263.737396,750.739807 
	C268.063538,753.525391 272.971222,755.407837 277.617798,757.695679 
	C277.617828,757.695679 277.861786,757.702087 277.969879,758.159729 
	C281.736328,760.401489 285.394684,762.185669 289.053040,763.969849 
	C289.053040,763.969849 289.010040,764.005249 289.049896,764.331421 
	C290.253662,765.521179 291.305237,766.641052 292.599091,767.207947 
	C304.073181,772.234985 315.352356,777.848206 327.153961,781.951050 
	C342.371033,787.241516 357.967194,791.476624 373.500610,795.805664 
	C380.145782,797.657715 387.003571,798.879700 393.839142,799.879211 
	C401.027710,800.930420 408.312775,801.304749 415.542450,802.095520 
	C433.375671,804.046021 451.176788,804.300354 469.130768,803.229614 
	C487.185547,802.152893 504.966949,799.776123 522.563477,795.902039 
	C533.644470,793.462341 544.796204,791.008179 555.533997,787.417419 
	C576.361145,780.452637 596.503540,771.714539 615.919556,761.398926 
	C617.190735,760.723572 617.969727,759.121948 618.977722,757.951233 
	C618.977722,757.951233 618.985840,758.006592 619.358459,758.017151 
	C623.361328,756.854004 627.674622,756.739746 629.027954,752.034180 
	C629.027954,752.034180 629.002441,752.000000 629.392700,752.026245 
	C637.650757,747.203613 645.528320,742.370239 653.353149,737.453186 
	C653.692505,737.240051 653.547668,736.256409 653.628357,735.631653 
	C653.628357,735.631653 653.878479,735.990906 654.126099,735.901062 
	C655.098083,735.054504 655.822510,734.297852 656.546875,733.541138 
	C656.546875,733.541138 656.784546,733.723938 657.046143,733.732056 
	C660.063477,731.348206 662.819275,728.956177 665.575012,726.564148 
	C665.575012,726.564148 665.884949,726.833374 666.101685,726.800659 
	C667.533875,725.489563 668.749268,724.211121 669.964600,722.932617 
	C669.964600,722.932617 669.986511,723.001282 670.329224,723.006958 
	C672.428955,721.312073 674.186035,719.611511 675.943176,717.910950 
	C675.943176,717.910950 675.987244,717.993347 676.282227,717.967529 
	C676.899963,717.470581 677.222595,716.999512 677.545227,716.528381 
	C677.545227,716.528381 677.816772,716.731873 678.052673,716.738159 
	C681.310974,713.669434 684.333313,710.594482 687.355713,707.519470 
	C687.355713,707.519470 687.472534,707.480347 687.833252,707.523865 
	C688.590332,706.888611 688.986633,706.209839 689.382935,705.531067 
	C689.382935,705.531067 689.503052,705.459106 689.819641,705.493286 
	C690.273987,705.220520 690.411743,704.913696 690.549438,704.606873 
	C690.549500,704.606873 690.732361,704.758545 690.956665,704.678101 
	C691.289490,704.266663 691.398010,703.935669 691.506592,703.604675 
	C691.506592,703.604675 691.595032,703.598206 691.952637,703.672363 
	C693.739136,702.024597 695.168091,700.302734 696.596985,698.580872 
	C696.710083,698.726685 696.823242,698.872437 697.064453,698.810120 
	C697.293701,698.266663 697.394958,697.931274 697.496216,697.595947 
	C697.496216,697.595947 697.755737,697.784851 697.968323,697.697876 
	C698.457581,697.079407 698.734253,696.547913 699.010986,696.016418 
	C699.010986,696.016418 699.000000,696.000000 699.355591,695.985291 
	C700.272278,695.152344 700.833435,694.334106 701.394531,693.515808 
	C701.394531,693.515808 701.504883,693.479736 701.857056,693.572266 
	C705.511963,690.342834 708.963623,687.151978 712.053406,683.642578 
	C713.553650,681.938477 714.376465,679.637939 715.505920,677.607422 
	C715.505920,677.607422 715.764832,677.889099 715.982483,677.746948 
	C716.458557,677.053772 716.716980,676.502747 716.975403,675.951721 
	C716.975403,675.951721 717.003479,675.995667 717.339539,675.967041 
	C718.632202,674.498108 719.588806,673.057800 720.545410,671.617493 
	C720.665710,671.750305 720.786072,671.883118 721.091064,671.832031 
	C723.062805,668.987671 724.849915,666.327209 726.637024,663.666748 
	C726.637024,663.666748 726.926086,663.909729 727.091675,663.770630 
	C727.496033,663.071045 727.734863,662.510559 727.973755,661.950073 
	C727.973755,661.950073 728.002075,661.997070 728.320435,661.963379 
	C731.982727,656.849060 735.326599,651.768433 738.670532,646.687805 
	C738.670471,646.687805 738.881165,646.897217 739.118164,646.784119 
	C740.439636,644.664246 741.524109,642.657471 742.608582,640.650696 
	C742.608582,640.650696 742.920898,640.896667 743.096802,640.749878 
	C744.686707,638.980469 746.530212,637.568848 747.447510,635.702148 
	C755.864685,618.573547 764.488586,601.531494 772.325867,584.136902 
	C780.939514,565.019287 786.694336,544.941345 790.130615,524.224304 
	C792.011414,512.885071 794.301453,501.601593 795.760193,490.210175 
	C796.396057,485.244385 795.408936,480.070709 795.158936,474.991455 
	C795.153381,474.245483 795.147827,473.499542 795.612061,472.267578 
	C798.533508,461.793579 797.522888,451.746582 796.535156,441.707825 
	C796.507385,441.425293 795.748413,441.214691 795.330322,440.970520 
	C795.237305,440.228638 795.144348,439.486755 795.371094,438.053650 
	C795.721130,432.218903 796.343628,426.995392 795.661743,421.948029 
	C794.116211,410.507477 792.240295,399.089508 789.916138,387.782135 
	C787.458435,375.825256 785.101929,363.753723 781.325562,352.181152 
	C773.360962,327.773590 762.901550,304.369995 750.042053,282.103088 
	C748.992004,280.284882 747.055725,278.978516 745.531250,277.434296 
	C745.531250,277.434296 745.810791,277.233215 745.784424,276.947632 
	C743.818359,273.089630 742.071411,269.392029 739.863708,265.993713 
	C738.620605,264.080231 736.617737,262.660370 734.957153,261.018127 
	C734.957153,261.018097 735.004639,261.005768 735.015747,260.655365 
	C732.901428,256.908081 730.944519,253.388016 728.585144,250.162247 
	C727.248352,248.334488 725.251587,246.989410 723.552063,245.426941 
	C723.552063,245.426941 723.882507,245.091431 723.824463,244.888580 
	C722.815247,243.808029 721.864014,242.930328 720.912781,242.052612 
	C720.912781,242.052628 720.994995,242.016129 720.970825,241.719208 
	C720.477295,241.091049 720.007812,240.759811 719.538391,240.428589 
	C719.538391,240.428574 719.853760,240.073776 719.806641,239.883698 
	C718.494263,238.466965 717.229065,237.240326 715.963867,236.013702 
	C715.963867,236.013687 716.004456,236.002655 716.011658,235.651550 
	C714.314148,233.554184 712.609497,231.807907 710.904846,230.061646 
	C710.904846,230.061630 710.981934,230.020309 710.899658,229.802811 
	C710.529541,229.395630 710.241638,229.205963 709.953735,229.016296 
	C709.953735,229.016312 710.000488,229.000244 710.002319,228.654892 
	C706.173523,224.417007 702.342896,220.524475 698.512329,216.631943 
	C698.512329,216.631943 698.444641,216.505066 698.488525,216.183594 
	C698.218140,215.758545 697.903931,215.654984 697.589661,215.551407 
	C697.589661,215.551407 697.558228,215.453323 697.564148,215.152832 
	C697.244873,214.755188 696.919617,214.658035 696.594421,214.560883 
	C696.594421,214.560883 696.555908,214.461227 696.560669,214.157120 
	C696.241394,213.767273 695.917236,213.681534 695.593140,213.595779 
	C695.593140,213.595779 695.527771,213.489517 695.541260,213.176575 
	C695.235596,212.781876 694.916565,212.700089 694.597473,212.618317 
	C694.597473,212.618317 694.506958,212.508896 694.526367,212.192139 
	C694.234680,211.808975 693.923584,211.742554 693.612549,211.676117 
	C693.612549,211.676117 693.485046,211.567627 693.568115,211.151352 
	C692.950928,210.348877 692.250793,209.962677 691.550598,209.576477 
	C691.550598,209.576462 691.571228,209.476761 691.572571,209.161407 
	C691.029785,208.574982 690.485596,208.303925 689.941467,208.032883 
	C689.941467,208.032883 689.995850,208.000153 689.977051,207.678253 
	C686.499390,204.421478 683.040527,201.486618 679.581726,198.551727 
	C679.581726,198.551727 679.552917,198.452011 679.554199,198.155914 
	C679.237610,197.784760 678.919800,197.709702 678.601990,197.634644 
	C678.601990,197.634659 678.540588,197.531769 678.563477,197.161514 
	C676.597229,195.347321 674.608154,193.903381 672.619080,192.459457 
	C672.619080,192.459457 672.753845,192.296570 672.676270,192.058807 
	C672.263611,191.742157 671.928528,191.663284 671.593445,191.584412 
	C671.593445,191.584412 671.572632,191.486084 671.592957,191.137619 
	C668.270569,188.377319 664.927856,185.965485 661.585144,183.553665 
	C661.585144,183.553665 661.592407,183.456696 661.607666,183.117767 
	C656.615967,179.366196 651.609131,175.953583 646.602295,172.540955 
	C646.602295,172.540939 646.609924,172.442215 646.616333,172.104431 
	C640.893433,168.259445 635.164185,164.752228 629.434875,161.244995 
	C629.434875,161.245010 629.164185,161.257401 629.052002,160.784134 
	C628.597107,159.756561 628.388611,158.942612 627.892029,158.685822 
	C614.573669,151.798538 601.597717,144.068192 587.786926,138.360352 
	C571.144165,131.482040 553.902832,125.963242 536.695190,120.575615 
	C527.287231,117.630005 517.480469,115.772148 507.732819,114.148239 
	C497.313202,112.412392 486.779022,111.121941 476.242645,110.409340 
	C468.542572,109.888565 460.757904,110.617752 453.010956,110.789764 
	C450.953522,110.839897 448.896088,110.890030 446.084778,110.597855 
	C427.065796,111.054771 408.800751,111.854004 389.617950,112.693390 
	C389.420563,104.056793 389.082520,94.723541 389.021790,85.388489 
	C388.918823,69.558830 389.078796,53.727253 388.940186,37.898132 
	C388.893555,32.574203 388.538574,27.328691 393.038055,23.360073 
	C393.471924,23.241688 393.905823,23.123302 394.982117,23.331421 
	C397.276215,23.759035 398.941254,24.047241 400.577209,23.929731 
	C408.833252,23.336697 417.080902,22.099596 425.333069,22.086548 
	C443.455933,22.057892 461.618683,22.009834 479.691406,23.144386 
	C495.322754,24.125673 510.947021,26.168587 526.398438,28.782450 
	C540.003113,31.083918 553.393311,34.705170 566.826233,37.958138 
	C587.585022,42.985165 607.342468,50.863098 626.869934,59.379539 
	C635.209717,63.016758 643.633423,66.461403 652.019043,69.993546 
	C652.019043,69.993538 652.004028,70.003716 652.046997,70.345360 
	C655.576355,72.795860 659.088928,74.862640 662.543945,77.021591 
	C672.205139,83.058662 682.059265,88.819199 691.434509,95.273750 
	C703.129761,103.325569 714.403687,111.988228 725.916016,120.308853 
	C727.234375,121.261711 728.915527,121.712563 730.428467,122.396164 
	C730.428467,122.396156 730.453369,122.499496 730.424072,122.857712 
	C732.400757,124.615524 734.406677,126.015137 736.412598,127.414742 
	C736.412598,127.414742 736.439758,127.515007 736.414490,127.868744 
	C738.920654,130.956055 741.324890,133.826447 744.045105,136.357117 
	C745.161133,137.395355 746.959045,137.700577 748.446777,138.339249 
	C748.446777,138.339249 748.489075,138.451248 748.475830,138.789536 
	C749.008057,139.394119 749.553589,139.660400 750.099121,139.926697 
	C750.099121,139.926697 750.008423,139.986542 750.033081,140.295502 
	C753.229370,144.085464 756.263855,147.706268 759.620422,150.998611 
	C761.880676,153.215530 764.596252,154.968307 767.108093,156.928741 
	C767.108093,156.928741 767.015137,156.979584 767.048645,157.271088 
	C767.562317,157.812714 768.042419,158.062805 768.522583,158.312897 
	C768.522583,158.312897 768.633118,158.458893 768.568420,158.786957 
	C768.806091,159.194672 769.108459,159.274307 769.410828,159.353943 
	C769.410828,159.353943 769.511108,159.471039 769.484131,159.798782 
	C769.772766,160.204727 770.088318,160.282913 770.403870,160.361115 
	C770.403870,160.361115 770.506592,160.477020 770.482666,160.808441 
	C770.776794,161.236099 771.094788,161.332367 771.412842,161.428619 
	C771.412842,161.428619 771.467346,161.530365 771.370239,161.901581 
	C773.547241,164.494156 775.821289,166.715500 778.095276,168.936859 
	C778.095276,168.936874 778.014954,168.991394 778.043823,169.281250 
	C778.545471,169.873856 779.018311,170.176605 779.491150,170.479340 
	C779.491150,170.479340 779.466187,170.573868 779.453430,170.860367 
	C779.762573,171.245346 780.084412,171.343842 780.406311,171.442322 
	C780.406311,171.442322 780.451721,171.540588 780.363403,171.908264 
	C782.001831,174.027267 783.728577,175.778610 785.455383,177.529953 
	C785.455383,177.529938 785.265869,177.708832 785.338379,177.938782 
	C785.736145,178.309433 786.061462,178.450150 786.386719,178.590851 
	C786.386719,178.590866 786.191895,178.827393 786.204346,179.097717 
	C787.609375,180.764999 789.001892,182.161942 790.394470,183.558884 
	C790.394470,183.558884 790.312134,183.692032 790.274170,184.015411 
	C792.518066,186.895905 794.799866,189.453018 797.081726,192.010132 
	C797.081726,192.010132 797.281616,192.122330 797.220337,192.623810 
	C798.272278,194.232849 799.385498,195.340408 800.498779,196.447968 
	C800.498779,196.447968 800.491211,196.550568 800.456726,196.854736 
	C800.723450,197.351700 801.024658,197.544510 801.325806,197.737335 
	C801.325806,197.737350 801.059814,197.901642 801.106079,198.171021 
	C801.973022,200.043884 802.633728,201.756638 803.641235,203.232666 
	C808.945312,211.003479 814.736877,218.471115 819.619995,226.493942 
	C832.006897,246.845291 843.262451,267.806763 852.203613,289.953430 
	C853.753113,293.791443 856.032471,297.334869 857.974670,301.014374 
	C857.974670,301.014374 858.004211,301.010406 857.968567,301.438477 
	C858.006165,303.193939 857.806213,304.607971 858.195557,305.835052 
	C861.572998,316.480316 865.279358,327.026093 868.441711,337.733246 
	C871.272461,347.317657 873.829468,357.005188 875.965881,366.765747 
	C877.833252,375.297394 879.163147,383.964691 880.338379,392.625305 
	C881.779846,403.247559 882.958313,413.911469 883.970337,424.583954 
	C884.594849,431.169617 884.637756,437.808929 885.102783,444.412842 
	C885.167175,445.327515 886.159119,446.176849 886.721680,447.056427 
z"/>
<path fill="#E2021C" opacity="1.000000" stroke="none" 
	d="
M412.723267,374.660370 
	C404.260468,379.624084 396.139618,384.421631 387.385773,389.593109 
	C387.385773,387.784576 387.385498,385.745392 387.385773,383.706177 
	C387.390045,352.210541 387.469757,320.714539 387.303436,289.219788 
	C387.282593,285.271698 388.679047,283.872589 392.288696,282.730774 
	C481.712463,254.444077 573.202576,293.433197 613.844666,377.748627 
	C628.736572,408.643219 633.704651,441.490845 629.318115,475.551971 
	C622.144531,531.254700 595.044678,575.137878 547.866699,605.160339 
	C492.717010,640.255737 433.884613,644.435547 374.308868,617.613220 
	C321.479767,593.828491 287.938599,552.501709 273.845642,496.223663 
	C270.520966,482.946930 268.829285,468.910248 268.790558,455.216339 
	C268.421295,324.735352 268.588898,194.252884 268.481903,63.770947 
	C268.478577,59.719982 269.577881,57.678341 273.442078,56.029240 
	C300.460602,44.498653 328.224457,35.393215 357.003357,29.436859 
	C357.468933,29.340498 357.971893,29.424812 358.856537,29.424812 
	C358.856537,31.625340 358.855927,33.767056 358.856628,35.908768 
	C358.901245,176.055420 358.746429,316.202606 359.122955,456.348358 
	C359.224304,494.070251 377.457001,521.555847 411.343414,537.694214 
	C458.033295,559.930237 515.067810,536.020203 532.637268,487.606659 
	C550.656555,437.953369 522.826721,384.063232 472.191406,370.449097 
	C451.994537,365.018799 432.319916,366.510132 412.723267,374.660370 
z"/>
<path fill="#CC252E" opacity="1.000000" stroke="none" 
	d="
M156.377197,643.221802 
	C155.122772,642.267395 153.327179,641.217712 152.496201,639.655090 
	C144.366714,624.368042 136.078461,609.151123 128.501587,593.589844 
	C123.828079,583.991394 119.456787,574.079529 116.475845,563.863159 
	C112.253601,549.392517 108.982323,534.598206 106.157082,519.779724 
	C103.573151,506.226898 102.098785,492.461334 100.200043,478.780548 
	C99.949921,476.978424 100.043259,475.123230 100.043121,473.292603 
	C100.036331,383.139893 100.039902,292.987183 100.016541,202.834488 
	C100.016006,200.774277 99.720100,198.714127 99.490608,195.724243 
	C97.216263,197.851303 95.730110,199.241226 93.890503,200.590881 
	C95.843063,197.203781 98.149071,193.856918 101.317253,189.258698 
	C101.471779,192.439743 101.615242,194.018311 101.615570,195.596893 
	C101.633354,282.263031 101.546165,368.929321 101.676277,455.595276 
	C101.775978,522.004211 119.239647,583.509521 154.508163,639.873718 
	C155.126633,640.862000 155.692978,641.882874 156.377197,643.221802 
z"/>
<path fill="#CC252E" opacity="1.000000" stroke="none" 
	d="
M225.807007,832.786865 
	C229.029968,833.867432 232.672913,834.814941 235.838959,836.605652 
	C254.996109,847.440918 274.808899,856.821594 295.592896,864.090820 
	C306.754425,867.994568 317.780304,872.495850 329.207428,875.381042 
	C345.798859,879.570068 362.683716,882.610352 379.468903,886.015015 
	C398.699036,889.915710 418.174042,891.277771 437.758514,891.047302 
	C452.794556,890.870361 467.877441,891.068420 482.848175,889.914917 
	C499.284943,888.648499 515.807739,886.973572 531.942871,883.732971 
	C549.183411,880.270264 566.062561,874.937805 583.008301,870.102173 
	C593.823853,867.015747 604.473816,863.349487 615.601440,859.969299 
	C600.226074,865.631714 584.686218,872.091248 568.624084,876.750244 
	C520.035461,890.843872 470.288879,895.798035 419.864532,892.574097 
	C377.614502,889.872681 336.489716,881.248901 296.705719,866.521362 
	C272.149994,857.431152 248.573669,846.313110 225.807007,832.786865 
z"/>
<path fill="#CC252E" opacity="1.000000" stroke="none" 
	d="
M618.617004,757.977417 
	C617.969727,759.121948 617.190735,760.723572 615.919556,761.398926 
	C596.503540,771.714539 576.361145,780.452637 555.533997,787.417419 
	C544.796204,791.008179 533.644470,793.462341 522.563477,795.902039 
	C504.966949,799.776123 487.185547,802.152893 469.130768,803.229614 
	C451.176788,804.300354 433.375671,804.046021 415.542450,802.095520 
	C408.312775,801.304749 401.027710,800.930420 393.839142,799.879211 
	C387.003571,798.879700 380.145782,797.657715 373.500610,795.805664 
	C357.967194,791.476624 342.371033,787.241516 327.153961,781.951050 
	C315.352356,777.848206 304.073181,772.234985 292.599091,767.207947 
	C291.305237,766.641052 290.253662,765.521179 289.055359,764.304199 
	C299.508972,768.536377 309.878876,773.417847 320.504944,777.657471 
	C372.158051,798.266479 425.778290,805.614746 481.076752,800.567688 
	C529.788879,796.121765 575.505554,781.782593 618.617004,757.977417 
z"/>
<path fill="#CC252E" opacity="1.000000" stroke="none" 
	d="
M88.278847,207.774704 
	C86.741737,211.182327 85.030594,214.804672 83.068169,218.285339 
	C72.993721,236.154022 61.610104,253.413910 53.069904,271.983795 
	C43.532616,292.721802 35.529392,314.319885 28.781301,336.138336 
	C23.119675,354.443970 19.649868,373.503296 16.305784,392.422638 
	C14.161990,404.551270 13.677281,417.014740 13.049314,429.358673 
	C12.341242,443.277222 12.001445,457.231995 12.089833,471.167267 
	C12.146358,480.078735 13.333337,488.979553 13.875097,497.893555 
	C14.045370,500.695190 13.765970,503.524200 13.428034,506.646606 
	C12.168480,484.551270 9.805609,462.110504 10.451481,439.756683 
	C11.983742,386.724884 23.556597,335.641235 44.313148,286.748566 
	C56.110336,258.959961 70.495331,232.572601 88.278847,207.774704 
z"/>
<path fill="#CC252E" opacity="1.000000" stroke="none" 
	d="
M651.802551,69.736832 
	C643.633423,66.461403 635.209717,63.016758 626.869934,59.379539 
	C607.342468,50.863098 587.585022,42.985165 566.826233,37.958138 
	C553.393311,34.705170 540.003113,31.083918 526.398438,28.782450 
	C510.947021,26.168587 495.322754,24.125673 479.691406,23.144386 
	C461.618683,22.009834 443.455933,22.057892 425.333069,22.086548 
	C417.080902,22.099596 408.833252,23.336697 400.577209,23.929731 
	C398.941254,24.047241 397.276215,23.759035 395.319763,23.381824 
	C421.465973,19.257053 448.069977,19.112461 474.653320,20.612148 
	C535.905151,24.067650 593.874084,39.944050 648.574219,67.730286 
	C649.607788,68.255287 650.583435,68.894302 651.802551,69.736832 
z"/>
<path fill="#CC252E" opacity="1.000000" stroke="none" 
	d="
M825.687866,679.183838 
	C827.598511,674.601562 829.812866,669.861877 831.996582,665.108093 
	C840.332703,646.961243 849.497986,629.137207 856.742371,610.564148 
	C863.389099,593.523376 868.484619,575.814758 873.261414,558.129700 
	C876.431885,546.391846 878.421692,534.248718 879.897522,522.159790 
	C882.119629,503.957611 883.424988,485.643616 885.158569,467.380829 
	C885.198181,466.964020 885.697266,466.590820 886.342163,466.073700 
	C885.303711,483.686646 884.699646,501.528900 882.356079,519.139648 
	C875.614563,569.797913 859.477295,617.505859 835.325684,662.513550 
	C832.336609,668.083923 829.099609,673.521118 825.687866,679.183838 
z"/>
<path fill="#CC252E" opacity="1.000000" stroke="none" 
	d="
M13.407106,509.396698 
	C14.319804,510.317535 15.620368,511.565826 15.858510,512.991638 
	C17.326073,521.777893 18.304472,530.650391 19.927086,539.404968 
	C21.802841,549.525391 23.489693,559.763184 26.484802,569.575684 
	C31.694927,586.644897 37.155037,603.702820 43.766235,620.264099 
	C53.380917,644.349243 65.017479,667.507874 79.435806,689.181152 
	C85.015434,697.568298 90.248688,706.185913 95.586655,715.066284 
	C73.418037,686.412231 55.964321,654.733887 42.161343,621.032837 
	C27.517866,585.279602 17.835737,548.201599 13.407106,509.396698 
z"/>
<path fill="#CC252E" opacity="1.000000" stroke="none" 
	d="
M453.429443,110.922264 
	C460.757904,110.617752 468.542572,109.888565 476.242645,110.409340 
	C486.779022,111.121941 497.313202,112.412392 507.732819,114.148239 
	C517.480469,115.772148 527.287231,117.630005 536.695190,120.575615 
	C553.902832,125.963242 571.144165,131.482040 587.786926,138.360352 
	C601.597717,144.068192 614.573669,151.798538 627.892029,158.685822 
	C628.388611,158.942612 628.597107,159.756561 628.981628,160.668381 
	C617.563110,155.062119 606.299561,148.677643 594.607605,143.209259 
	C550.033997,122.362038 502.991974,112.037460 453.429443,110.922264 
z"/>
<path fill="#CC252E" opacity="1.000000" stroke="none" 
	d="
M795.019897,475.389465 
	C795.408936,480.070709 796.396057,485.244385 795.760193,490.210175 
	C794.301453,501.601593 792.011414,512.885071 790.130615,524.224304 
	C786.694336,544.941345 780.939514,565.019287 772.325867,584.136902 
	C764.488586,601.531494 755.864685,618.573547 747.447510,635.702148 
	C746.530212,637.568848 744.686707,638.980469 742.928467,640.644348 
	C749.040588,628.720276 755.965271,616.980896 761.867981,604.748413 
	C781.523865,564.014648 792.348755,520.943420 795.019897,475.389465 
z"/>
<path fill="#CC252E" opacity="1.000000" stroke="none" 
	d="
M745.611389,277.773895 
	C747.055725,278.978516 748.992004,280.284882 750.042053,282.103088 
	C762.901550,304.369995 773.360962,327.773590 781.325562,352.181152 
	C785.101929,363.753723 787.458435,375.825256 789.916138,387.782135 
	C792.240295,399.089508 794.116211,410.507477 795.661743,421.948029 
	C796.343628,426.995392 795.721130,432.218903 795.427429,437.681274 
	C791.938477,416.831635 789.734741,395.444183 785.254761,374.544678 
	C778.026489,340.823639 764.317688,309.468964 746.644043,279.865448 
	C746.303589,279.295166 746.008057,278.698090 745.611389,277.773895 
z"/>
<path fill="#CC252E" opacity="1.000000" stroke="none" 
	d="
M392.638794,23.274715 
	C388.538574,27.328691 388.893555,32.574203 388.940186,37.898132 
	C389.078796,53.727253 388.918823,69.558830 389.021790,85.388489 
	C389.082520,94.723541 389.420563,104.056793 389.617950,112.693390 
	C408.800751,111.854004 427.065796,111.054771 445.650574,110.514084 
	C432.049805,111.812881 418.121338,112.758987 404.212860,113.940605 
	C398.799957,114.400467 393.432129,115.391319 387.632507,116.197464 
	C387.632507,85.353577 387.632507,54.952694 387.632507,24.045465 
	C389.065796,23.779121 390.652679,23.484238 392.638794,23.274715 
z"/>
<path fill="#CC252E" opacity="1.000000" stroke="none" 
	d="
M886.827393,446.594330 
	C886.159119,446.176849 885.167175,445.327515 885.102783,444.412842 
	C884.637756,437.808929 884.594849,431.169617 883.970337,424.583954 
	C882.958313,413.911469 881.779846,403.247559 880.338379,392.625305 
	C879.163147,383.964691 877.833252,375.297394 875.965881,366.765747 
	C873.829468,357.005188 871.272461,347.317657 868.441711,337.733246 
	C865.279358,327.026093 861.572998,316.480316 858.195557,305.835052 
	C857.806213,304.607971 858.006165,303.193939 857.956360,301.449036 
	C863.195618,316.961945 869.111389,332.703186 873.478699,348.862915 
	C882.072876,380.663391 886.104675,413.202545 886.827393,446.594330 
z"/>
<path fill="#CC252E" opacity="1.000000" stroke="none" 
	d="
M858.003479,300.629913 
	C856.032471,297.334869 853.753113,293.791443 852.203613,289.953430 
	C843.262451,267.806763 832.006897,246.845291 819.619995,226.493942 
	C814.736877,218.471115 808.945312,211.003479 803.641235,203.232666 
	C802.633728,201.756638 801.973022,200.043884 801.225952,198.070648 
	C809.398865,209.642380 817.909485,221.328903 825.506348,233.581940 
	C838.584595,254.675842 849.270203,277.009094 858.003479,300.629913 
z"/>
<path fill="#CC252E" opacity="1.000000" stroke="none" 
	d="
M730.281982,122.113251 
	C728.915527,121.712563 727.234375,121.261711 725.916016,120.308853 
	C714.403687,111.988228 703.129761,103.325569 691.434509,95.273750 
	C682.059265,88.819199 672.205139,83.058662 662.543945,77.021591 
	C659.088928,74.862640 655.576355,72.795860 652.045532,70.337189 
	C661.953186,75.566185 672.355652,80.482018 681.757751,86.870285 
	C698.207520,98.047058 714.042786,110.128166 730.281982,122.113251 
z"/>
<path fill="#CC252E" opacity="1.000000" stroke="none" 
	d="
M630.344360,853.953857 
	C633.060730,852.009827 636.067932,849.911682 639.251465,848.128052 
	C652.593262,840.652771 665.978699,833.255066 679.370239,825.868835 
	C682.377686,824.210022 685.473999,822.712402 688.904419,821.205200 
	C678.985352,827.602112 668.871216,834.254456 658.342468,840.168640 
	C649.381714,845.202026 639.943298,849.385193 630.344360,853.953857 
z"/>
<path fill="#CC252E" opacity="1.000000" stroke="none" 
	d="
M277.416138,757.407715 
	C272.971222,755.407837 268.063538,753.525391 263.737396,750.739807 
	C256.736847,746.232178 250.118362,741.131226 243.361938,735.923279 
	C254.661743,742.750366 265.938110,749.935059 277.416138,757.407715 
z"/>
<path fill="#CC252E" opacity="1.000000" stroke="none" 
	d="
M744.951294,778.335938 
	C744.548218,777.997681 744.182068,777.266052 744.359619,777.093323 
	C752.826904,768.858032 761.341125,760.670898 770.180054,752.607788 
	C762.087280,761.225891 753.664551,769.714600 744.951294,778.335938 
z"/>
<path fill="#CC252E" opacity="1.000000" stroke="none" 
	d="
M795.227661,441.430573 
	C795.748413,441.214691 796.507385,441.425293 796.535156,441.707825 
	C797.522888,451.746582 798.533508,461.793579 795.719666,471.908417 
	C795.279968,461.987030 795.202515,451.938812 795.227661,441.430573 
z"/>
<path fill="#CC252E" opacity="1.000000" stroke="none" 
	d="
M197.156189,814.287231 
	C199.865860,815.438416 202.886871,816.649475 205.583023,818.369690 
	C212.371246,822.700928 219.012955,827.261780 225.603149,832.087830 
	C216.101822,826.489685 206.710724,820.534241 197.156189,814.287231 
z"/>
<path fill="#CC252E" opacity="1.000000" stroke="none" 
	d="
M126.635757,752.932251 
	C126.973106,752.641785 127.653679,752.438110 127.886925,752.674927 
	C135.136948,760.037537 142.343216,767.443176 149.435989,775.177917 
	C141.800644,768.083862 134.285553,760.654114 126.635757,752.932251 
z"/>
<path fill="#CC252E" opacity="1.000000" stroke="none" 
	d="
M806.308594,708.879150 
	C806.017090,708.525940 805.843811,707.910095 806.074341,707.560059 
	C812.267334,698.156738 818.501770,688.780762 825.077148,679.354980 
	C819.154968,689.119934 812.884888,698.930115 806.308594,708.879150 
z"/>
<path fill="#CC252E" opacity="1.000000" stroke="none" 
	d="
M653.301270,735.725464 
	C653.547668,736.256409 653.692505,737.240051 653.353149,737.453186 
	C645.528320,742.370239 637.650757,747.203613 629.408325,752.042236 
	C637.013794,746.627808 644.994019,741.223572 653.301270,735.725464 
z"/>
<path fill="#CC252E" opacity="1.000000" stroke="none" 
	d="
M767.024414,156.601746 
	C764.596252,154.968307 761.880676,153.215530 759.620422,150.998611 
	C756.263855,147.706268 753.229370,144.085464 750.065308,140.251755 
	C755.695496,145.357635 761.318115,150.816208 767.024414,156.601746 
z"/>
<path fill="#CC252E" opacity="1.000000" stroke="none" 
	d="
M715.229980,677.772949 
	C714.376465,679.637939 713.553650,681.938477 712.053406,683.642578 
	C708.963623,687.151978 705.511963,690.342834 701.871582,693.516052 
	C706.007385,688.224426 710.480713,683.081421 715.229980,677.772949 
z"/>
<path fill="#CC252E" opacity="1.000000" stroke="none" 
	d="
M243.194794,735.280640 
	C240.931915,734.364746 238.226181,733.525818 236.118469,731.907776 
	C232.887222,729.427551 230.067719,726.410828 227.059418,723.270508 
	C232.370193,726.949097 237.695007,730.978882 243.194794,735.280640 
z"/>
<path fill="#CC252E" opacity="1.000000" stroke="none" 
	d="
M629.617065,161.544922 
	C635.164185,164.752228 640.893433,168.259445 646.571777,172.125977 
	C640.946899,168.938492 635.373108,165.391663 629.617065,161.544922 
z"/>
<path fill="#CC252E" opacity="1.000000" stroke="none" 
	d="
M794.879150,724.262390 
	C795.407532,722.634216 795.917786,720.623535 797.062988,719.085571 
	C799.647644,715.614258 802.546326,712.376648 805.666809,709.022705 
	C802.393982,714.032410 798.771606,719.063416 794.879150,724.262390 
z"/>
<path fill="#CC252E" opacity="1.000000" stroke="none" 
	d="
M735.006226,261.364746 
	C736.617737,262.660370 738.620605,264.080231 739.863708,265.993713 
	C742.071411,269.392029 743.818359,273.089630 745.630066,277.023895 
	C742.019836,272.160980 738.537598,266.936188 735.006226,261.364746 
z"/>
<path fill="#CC252E" opacity="1.000000" stroke="none" 
	d="
M723.642212,245.755005 
	C725.251587,246.989410 727.248352,248.334488 728.585144,250.162247 
	C730.944519,253.388016 732.901428,256.908081 735.001465,260.675354 
	C731.228149,256.058228 727.480225,251.070648 723.642212,245.755005 
z"/>
<path fill="#CC252E" opacity="1.000000" stroke="none" 
	d="
M699.826172,814.380554 
	C704.258911,810.788147 709.013367,807.095825 714.124817,803.503296 
	C709.703796,807.162231 704.925903,810.721436 699.826172,814.380554 
z"/>
<path fill="#CC252E" opacity="1.000000" stroke="none" 
	d="
M646.790588,172.800201 
	C651.609131,175.953583 656.615967,179.366196 661.562622,183.136139 
	C656.661194,180.015457 651.820068,176.537445 646.790588,172.800201 
z"/>
<path fill="#CC252E" opacity="1.000000" stroke="none" 
	d="
M95.669083,715.793274 
	C99.276901,719.889343 103.010635,724.294861 106.606888,729.053955 
	C102.911278,724.972595 99.353142,720.537598 95.669083,715.793274 
z"/>
<path fill="#CC252E" opacity="1.000000" stroke="none" 
	d="
M738.379883,646.845398 
	C735.326599,651.768433 731.982727,656.849060 728.294861,661.953735 
	C731.330322,656.986145 734.709778,651.994568 738.379883,646.845398 
z"/>
<path fill="#CC252E" opacity="1.000000" stroke="none" 
	d="
M698.645630,216.924545 
	C702.342896,220.524475 706.173523,224.417007 709.989990,228.676392 
	C706.243530,225.101212 702.511230,221.159180 698.645630,216.924545 
z"/>
<path fill="#CC252E" opacity="1.000000" stroke="none" 
	d="
M748.306519,138.054596 
	C746.959045,137.700577 745.161133,137.395355 744.045105,136.357117 
	C741.324890,133.826447 738.920654,130.956055 736.465942,127.875832 
	C740.417236,130.942780 744.291748,134.356354 748.306519,138.054596 
z"/>
<path fill="#CC252E" opacity="1.000000" stroke="none" 
	d="
M616.372070,860.008057 
	C620.384460,857.978943 624.775696,855.958008 629.565002,853.952393 
	C625.559082,855.983887 621.155029,858.000061 616.372070,860.008057 
z"/>
<path fill="#CC252E" opacity="1.000000" stroke="none" 
	d="
M679.725830,198.839615 
	C683.040527,201.486618 686.499390,204.421478 689.963501,207.706970 
	C686.602417,205.080902 683.236145,202.104202 679.725830,198.839615 
z"/>
<path fill="#CC252E" opacity="1.000000" stroke="none" 
	d="
M162.763077,787.623413 
	C166.308548,790.122314 169.981964,792.929321 173.622955,796.091431 
	C170.024033,793.608215 166.457520,790.769897 162.763077,787.623413 
z"/>
<path fill="#CC252E" opacity="1.000000" stroke="none" 
	d="
M781.778015,740.257202 
	C784.257385,736.733398 787.027954,733.067505 790.150146,729.479309 
	C787.690857,733.076355 784.880005,736.595703 781.778015,740.257202 
z"/>
<path fill="#CC252E" opacity="1.000000" stroke="none" 
	d="
M219.910416,716.670532 
	C216.522324,714.034485 212.996384,711.093384 209.611801,707.825928 
	C213.092957,710.454895 216.432770,713.410095 219.910416,716.670532 
z"/>
<path fill="#CC252E" opacity="1.000000" stroke="none" 
	d="
M117.640976,742.928101 
	C120.562981,745.682861 123.618935,748.731750 126.505867,752.122009 
	C123.482880,749.382996 120.628906,746.302612 117.640976,742.928101 
z"/>
<path fill="#CC252E" opacity="1.000000" stroke="none" 
	d="
M687.066162,707.660767 
	C684.333313,710.594482 681.310974,713.669434 677.936707,716.614319 
	C680.648743,713.590088 683.712646,710.696045 687.066162,707.660767 
z"/>
<path fill="#CC252E" opacity="1.000000" stroke="none" 
	d="
M164.060242,654.586609 
	C161.484116,651.399048 158.859955,647.864014 156.370911,643.970703 
	C159.008072,647.154602 161.510132,650.696899 164.060242,654.586609 
z"/>
<path fill="#CC252E" opacity="1.000000" stroke="none" 
	d="
M661.753174,183.825348 
	C664.927856,185.965485 668.270569,188.377319 671.542847,191.141693 
	C668.288696,189.028503 665.104919,186.562759 661.753174,183.825348 
z"/>
<path fill="#CC252E" opacity="1.000000" stroke="none" 
	d="
M288.874390,763.681152 
	C285.394684,762.185669 281.736328,760.401489 278.032837,758.264282 
	C281.557007,759.738342 285.126373,761.565430 288.874390,763.681152 
z"/>
<path fill="#CC252E" opacity="1.000000" stroke="none" 
	d="
M628.673706,752.057068 
	C627.674622,756.739746 623.361328,756.854004 619.338196,757.997803 
	C622.070068,756.005188 625.194763,754.042542 628.673706,752.057068 
z"/>
<path fill="#CC252E" opacity="1.000000" stroke="none" 
	d="
M195.363205,692.981812 
	C192.780960,690.606506 190.059906,687.946838 187.375198,684.926514 
	C190.015839,687.276428 192.620117,689.987000 195.363205,692.981812 
z"/>
<path fill="#CC252E" opacity="1.000000" stroke="none" 
	d="
M689.571533,821.267700 
	C692.381165,818.967651 695.541748,816.619263 699.057861,814.409790 
	C696.249817,816.772278 693.086121,818.995789 689.571533,821.267700 
z"/>
<path fill="#CC252E" opacity="1.000000" stroke="none" 
	d="
M177.287033,672.377441 
	C174.977448,669.926208 172.597473,667.138306 170.327301,663.990967 
	C172.696960,666.434631 174.956802,669.237671 177.287033,672.377441 
z"/>
<path fill="#CC252E" opacity="1.000000" stroke="none" 
	d="
M665.250977,726.656799 
	C662.819275,728.956177 660.063477,731.348206 656.949341,733.617615 
	C659.369690,731.246460 662.148315,728.997925 665.250977,726.656799 
z"/>
<path fill="#CC252E" opacity="1.000000" stroke="none" 
	d="
M173.782150,796.746460 
	C176.615356,798.570679 179.614944,800.671326 182.559631,803.126770 
	C179.652664,801.328674 176.800598,799.175842 173.782150,796.746460 
z"/>
<path fill="#CC252E" opacity="1.000000" stroke="none" 
	d="
M773.807007,749.273315 
	C775.600220,746.728333 777.689758,744.051880 780.131104,741.440491 
	C778.356445,744.051025 776.229919,746.596436 773.807007,749.273315 
z"/>
<path fill="#CC252E" opacity="1.000000" stroke="none" 
	d="
M797.014587,191.669647 
	C794.799866,189.453018 792.518066,186.895905 790.343506,183.979004 
	C792.616272,186.189178 794.781860,188.759155 797.014587,191.669647 
z"/>
<path fill="#CC252E" opacity="1.000000" stroke="none" 
	d="
M714.916870,803.385498 
	C717.311829,801.087952 720.012878,798.674805 723.065796,796.401611 
	C720.686157,798.784424 717.954529,801.027161 714.916870,803.385498 
z"/>
<path fill="#CC252E" opacity="1.000000" stroke="none" 
	d="
M777.996216,168.617004 
	C775.821289,166.715500 773.547241,164.494156 771.422363,161.926453 
	C773.680054,163.819107 775.788635,166.058121 777.996216,168.617004 
z"/>
<path fill="#CC252E" opacity="1.000000" stroke="none" 
	d="
M737.370850,784.993774 
	C739.284119,782.828613 741.522400,780.578369 744.101562,778.491882 
	C742.193665,780.739990 739.944763,782.824402 737.370850,784.993774 
z"/>
<path fill="#CC252E" opacity="1.000000" stroke="none" 
	d="
M726.341919,663.808716 
	C724.849915,666.327209 723.062805,668.987671 720.918762,671.625977 
	C722.390198,669.052795 724.218445,666.501770 726.341919,663.808716 
z"/>
<path fill="#CC252E" opacity="1.000000" stroke="none" 
	d="
M110.654816,734.741943 
	C112.596329,736.514526 114.628838,738.609375 116.634735,741.064026 
	C114.654030,739.303955 112.699928,737.184082 110.654816,734.741943 
z"/>
<path fill="#CC252E" opacity="1.000000" stroke="none" 
	d="
M182.705643,803.789795 
	C185.012360,805.108093 187.477295,806.709412 189.972839,808.658997 
	C187.623611,807.362488 185.243744,805.717651 182.705643,803.789795 
z"/>
<path fill="#CC252E" opacity="1.000000" stroke="none" 
	d="
M728.739807,792.320557 
	C730.524536,790.375122 732.626465,788.325317 735.077393,786.414429 
	C733.303223,788.440979 731.180115,790.328552 728.739807,792.320557 
z"/>
<path fill="#CC252E" opacity="1.000000" stroke="none" 
	d="
M190.147339,809.290649 
	C192.310577,810.429749 194.631546,811.861267 196.979156,813.648315 
	C194.772217,812.530334 192.538651,811.056702 190.147339,809.290649 
z"/>
<path fill="#CC252E" opacity="1.000000" stroke="none" 
	d="
M169.024887,661.612671 
	C167.393616,659.846985 165.701828,657.744690 164.044739,655.268372 
	C165.707764,657.021545 167.336075,659.148804 169.024887,661.612671 
z"/>
<path fill="#CC252E" opacity="1.000000" stroke="none" 
	d="
M93.204651,200.749084 
	C92.089882,202.950958 90.689934,205.305298 88.928368,207.645279 
	C90.017654,205.387802 91.468559,203.144684 93.204651,200.749084 
z"/>
<path fill="#CC252E" opacity="1.000000" stroke="none" 
	d="
M154.758255,780.669800 
	C156.951416,782.163696 159.297470,783.948914 161.601913,786.087646 
	C159.343933,784.614502 157.127533,782.787903 154.758255,780.669800 
z"/>
<path fill="#CC252E" opacity="1.000000" stroke="none" 
	d="
M736.244019,127.147560 
	C734.406677,126.015137 732.400757,124.615524 730.477051,122.862198 
	C732.398010,123.965767 734.236694,125.423073 736.244019,127.147560 
z"/>
<path fill="#CC252E" opacity="1.000000" stroke="none" 
	d="
M675.618408,717.984131 
	C674.186035,719.611511 672.428955,721.312073 670.301331,722.984131 
	C671.718445,721.322815 673.506042,719.690125 675.618408,717.984131 
z"/>
<path fill="#CC252E" opacity="1.000000" stroke="none" 
	d="
M785.353638,177.218094 
	C783.728577,175.778610 782.001831,174.027267 780.414185,171.926788 
	C782.119507,173.353836 783.685730,175.130020 785.353638,177.218094 
z"/>
<path fill="#CC252E" opacity="1.000000" stroke="none" 
	d="
M672.771057,192.743073 
	C674.608154,193.903381 676.597229,195.347321 678.506409,197.143082 
	C676.592041,196.005493 674.757507,194.516083 672.771057,192.743073 
z"/>
<path fill="#CC252E" opacity="1.000000" stroke="none" 
	d="
M710.995789,230.380905 
	C712.609497,231.807907 714.314148,233.554184 716.000610,235.669464 
	C714.350464,234.259033 712.718628,232.479599 710.995789,230.380905 
z"/>
<path fill="#CC252E" opacity="1.000000" stroke="none" 
	d="
M186.382660,683.078552 
	C184.781799,681.677368 183.062531,679.978088 181.388885,677.917847 
	C183.044403,679.298096 184.654312,681.039307 186.382660,683.078552 
z"/>
<path fill="#CC252E" opacity="1.000000" stroke="none" 
	d="
M742.311096,640.791382 
	C741.524109,642.657471 740.439636,644.664246 738.995605,646.700256 
	C739.761841,644.796997 740.887695,642.864502 742.311096,640.791382 
z"/>
<path fill="#CC252E" opacity="1.000000" stroke="none" 
	d="
M790.303101,183.249420 
	C789.001892,182.161942 787.609375,180.764999 786.321899,178.999481 
	C787.688599,180.067261 788.950134,181.503616 790.303101,183.249420 
z"/>
<path fill="#CC252E" opacity="1.000000" stroke="none" 
	d="
M696.294922,698.700134 
	C695.168091,700.302734 693.739136,702.024597 691.953979,703.627991 
	C693.062866,701.946167 694.527893,700.382751 696.294922,698.700134 
z"/>
<path fill="#CC252E" opacity="1.000000" stroke="none" 
	d="
M723.805908,796.376526 
	C724.893066,795.063293 726.285156,793.647827 728.031982,792.348267 
	C726.961365,793.734192 725.536133,795.004211 723.805908,796.376526 
z"/>
<path fill="#CC252E" opacity="1.000000" stroke="none" 
	d="
M790.875122,729.271484 
	C791.667175,727.756653 792.729553,726.084717 794.152466,724.490723 
	C793.390442,726.083923 792.267883,727.599121 790.875122,729.271484 
z"/>
<path fill="#CC252E" opacity="1.000000" stroke="none" 
	d="
M716.020752,236.333557 
	C717.229065,237.240326 718.494263,238.466965 719.634827,240.047485 
	C718.366028,239.152023 717.221802,237.902710 716.020752,236.333557 
z"/>
<path fill="#CC252E" opacity="1.000000" stroke="none" 
	d="
M720.258911,671.752686 
	C719.588806,673.057800 718.632202,674.498108 717.314819,675.959106 
	C717.960205,674.615845 718.966309,673.251892 720.258911,671.752686 
z"/>
<path fill="#CC252E" opacity="1.000000" stroke="none" 
	d="
M669.643677,722.990295 
	C668.749268,724.211121 667.533875,725.489563 665.962830,726.649536 
	C666.845703,725.370056 668.084229,724.208984 669.643677,722.990295 
z"/>
<path fill="#CC252E" opacity="1.000000" stroke="none" 
	d="
M224.188065,720.393250 
	C222.893845,719.683899 221.478119,718.676880 220.041412,717.312012 
	C221.369141,718.001221 222.717850,719.048401 224.188065,720.393250 
z"/>
<path fill="#CC252E" opacity="1.000000" stroke="none" 
	d="
M106.630096,729.793335 
	C107.909233,730.892151 109.286171,732.300842 110.624962,734.070007 
	C109.300507,732.988037 108.014206,731.545654 106.630096,729.793335 
z"/>
<path fill="#CC252E" opacity="1.000000" stroke="none" 
	d="
M886.884277,460.571259 
	C886.605835,458.209351 886.440063,455.407562 886.518799,452.302307 
	C886.841187,454.709686 886.919128,457.420532 886.884277,460.571259 
z"/>
<path fill="#CC252E" opacity="1.000000" stroke="none" 
	d="
M800.386597,196.143127 
	C799.385498,195.340408 798.272278,194.232849 797.231506,192.737885 
	C798.294128,193.513077 799.284241,194.675674 800.386597,196.143127 
z"/>
<path fill="#CC252E" opacity="1.000000" stroke="none" 
	d="
M205.323669,703.178650 
	C204.380798,702.744446 203.328842,702.031738 202.406326,700.943359 
	C203.428711,701.345154 204.321640,702.122620 205.323669,703.178650 
z"/>
<path fill="#CC252E" opacity="1.000000" stroke="none" 
	d="
M209.322662,706.980713 
	C208.388229,706.601440 207.330627,705.959717 206.403809,704.935303 
	C207.422882,705.274414 208.311188,705.996277 209.322662,706.980713 
z"/>
<path fill="#CC252E" opacity="1.000000" stroke="none" 
	d="
M180.053925,675.617981 
	C179.129852,675.089172 178.153442,674.244446 177.253601,673.038208 
	C178.220642,673.551758 179.111099,674.426880 180.053925,675.617981 
z"/>
<path fill="#CC252E" opacity="1.000000" stroke="none" 
	d="
M720.963135,242.364746 
	C721.864014,242.930328 722.815247,243.808029 723.646118,245.042236 
	C722.688293,244.491455 721.850891,243.584167 720.963135,242.364746 
z"/>
<path fill="#CC252E" opacity="1.000000" stroke="none" 
	d="
M656.247681,733.609070 
	C655.822510,734.297852 655.098083,735.054504 654.013184,735.713684 
	C654.417969,734.969788 655.183289,734.323425 656.247681,733.609070 
z"/>
<path fill="#CC252E" opacity="1.000000" stroke="none" 
	d="
M691.636353,209.833740 
	C692.250793,209.962677 692.950928,210.348877 693.503662,211.097900 
	C692.811462,211.004150 692.266785,210.547577 691.636353,209.833740 
z"/>
<path fill="#CC252E" opacity="1.000000" stroke="none" 
	d="
M701.126099,693.638550 
	C700.833435,694.334106 700.272278,695.152344 699.363708,695.990662 
	C699.630005,695.260925 700.243835,694.511047 701.126099,693.638550 
z"/>
<path fill="#CC252E" opacity="1.000000" stroke="none" 
	d="
M689.141113,705.646301 
	C688.986633,706.209839 688.590332,706.888611 687.857666,707.467285 
	C687.980530,706.831970 688.439880,706.296753 689.141113,705.646301 
z"/>
<path fill="#CC252E" opacity="1.000000" stroke="none" 
	d="
M770.963806,752.354370 
	C771.092468,751.797729 771.451233,751.128235 772.142151,750.567200 
	C772.047485,751.197632 771.620667,751.719604 770.963806,752.354370 
z"/>
<path fill="#CC252E" opacity="1.000000" stroke="none" 
	d="
M226.965546,722.678589 
	C226.519226,722.700928 225.957169,722.455872 225.390167,721.881470 
	C225.873413,721.838440 226.361618,722.124817 226.965546,722.678589 
z"/>
<path fill="#CC252E" opacity="1.000000" stroke="none" 
	d="
M735.774170,786.407715 
	C735.804749,786.012939 736.108582,785.535583 736.744873,785.052979 
	C736.734070,785.473511 736.390747,785.899353 735.774170,786.407715 
z"/>
<path fill="#CC252E" opacity="1.000000" stroke="none" 
	d="
M197.003906,694.699463 
	C196.540237,694.671997 196.020233,694.384705 195.607880,693.789001 
	C196.126221,693.800293 196.536880,694.119934 197.003906,694.699463 
z"/>
<path fill="#CC252E" opacity="1.000000" stroke="none" 
	d="
M719.611755,240.706284 
	C720.007812,240.759811 720.477295,241.091049 720.943115,241.754578 
	C720.521362,241.719254 720.103210,241.351608 719.611755,240.706284 
z"/>
<path fill="#CC252E" opacity="1.000000" stroke="none" 
	d="
M727.696716,662.054077 
	C727.734863,662.510559 727.496033,663.071045 726.934509,663.665955 
	C726.881104,663.186279 727.150391,662.672180 727.696716,662.054077 
z"/>
<path fill="#CC252E" opacity="1.000000" stroke="none" 
	d="
M181.389816,677.297852 
	C180.996780,677.238403 180.530289,676.900146 180.069397,676.228760 
	C180.488785,676.270081 180.902588,676.644531 181.389816,677.297852 
z"/>
<path fill="#CC252E" opacity="1.000000" stroke="none" 
	d="
M716.714111,676.061523 
	C716.716980,676.502747 716.458557,677.053772 715.872803,677.590271 
	C715.847900,677.107544 716.150330,676.639465 716.714111,676.061523 
z"/>
<path fill="#CC252E" opacity="1.000000" stroke="none" 
	d="
M690.023010,208.302094 
	C690.485596,208.303925 691.029785,208.574982 691.522827,209.172409 
	C691.016052,209.189621 690.560303,208.880478 690.023010,208.302094 
z"/>
<path fill="#CC252E" opacity="1.000000" stroke="none" 
	d="
M170.374527,663.338257 
	C169.973175,663.275757 169.513458,662.925659 169.055389,662.245728 
	C169.476746,662.294128 169.896454,662.672424 170.374527,663.338257 
z"/>
<path fill="#CC252E" opacity="1.000000" stroke="none" 
	d="
M198.393555,696.194580 
	C198.014343,696.169556 197.537277,695.884338 197.050690,695.269653 
	C197.459351,695.271606 197.877533,695.602966 198.393555,696.194580 
z"/>
<path fill="#CC252E" opacity="1.000000" stroke="none" 
	d="
M698.742249,696.099792 
	C698.734253,696.547913 698.457581,697.079407 697.858765,697.580566 
	C697.848999,697.094482 698.161255,696.638794 698.742249,696.099792 
z"/>
<path fill="#CC252E" opacity="1.000000" stroke="none" 
	d="
M750.035522,139.655441 
	C749.553589,139.660400 749.008057,139.394119 748.533936,138.804047 
	C749.060852,138.781570 749.516418,139.082870 750.035522,139.655441 
z"/>
<path fill="#CC252E" opacity="1.000000" stroke="none" 
	d="
M677.271729,716.608765 
	C677.222595,716.999512 676.899963,717.470581 676.244751,717.939575 
	C676.274292,717.521423 676.636230,717.105347 677.271729,716.608765 
z"/>
<path fill="#CC252E" opacity="1.000000" stroke="none" 
	d="
M779.405518,170.208954 
	C779.018311,170.176605 778.545471,169.873856 778.067993,169.239182 
	C778.482117,169.251022 778.901001,169.594788 779.405518,170.208954 
z"/>
<path fill="#CC252E" opacity="1.000000" stroke="none" 
	d="
M768.423828,158.064590 
	C768.042419,158.062805 767.562317,157.812714 767.079224,157.227814 
	C767.492493,157.200775 767.908813,157.508530 768.423828,158.064590 
z"/>
<path fill="#CC252E" opacity="1.000000" stroke="none" 
	d="
M696.659668,214.771729 
	C696.919617,214.658035 697.244873,214.755188 697.514771,215.138062 
	C697.141541,215.398453 696.896729,215.251373 696.659668,214.771729 
z"/>
<path fill="#CC252E" opacity="1.000000" stroke="none" 
	d="
M694.664673,212.813843 
	C694.916565,212.700089 695.235596,212.781876 695.488647,213.143097 
	C695.126648,213.394684 694.896423,213.256958 694.664673,212.813843 
z"/>
<path fill="#CC252E" opacity="1.000000" stroke="none" 
	d="
M161.697495,786.716919 
	C161.948715,786.579468 162.291321,786.675781 162.654510,787.064697 
	C162.379700,787.221680 162.084290,787.086182 161.697495,786.716919 
z"/>
<path fill="#CC252E" opacity="1.000000" stroke="none" 
	d="
M695.660645,213.801025 
	C695.917236,213.681534 696.241394,213.767273 696.511047,214.137451 
	C696.144409,214.405029 695.901611,214.266495 695.660645,213.801025 
z"/>
<path fill="#CC252E" opacity="1.000000" stroke="none" 
	d="
M153.704803,779.789429 
	C153.940491,779.657166 154.276794,779.731018 154.611206,780.095764 
	C154.280792,780.380859 154.012802,780.250549 153.704803,779.789429 
z"/>
<path fill="#CC252E" opacity="1.000000" stroke="none" 
	d="
M697.638916,215.750336 
	C697.903931,215.654984 698.218140,215.758545 698.436951,216.133530 
	C698.049744,216.359100 697.831970,216.207199 697.638916,215.750336 
z"/>
<path fill="#CC252E" opacity="1.000000" stroke="none" 
	d="
M693.677856,211.858704 
	C693.923584,211.742554 694.234680,211.808975 694.470886,212.147766 
	C694.118225,212.397583 693.900635,212.271301 693.677856,211.858704 
z"/>
<path fill="#CC252E" opacity="1.000000" stroke="none" 
	d="
M801.299561,197.494232 
	C801.024658,197.544510 800.723450,197.351700 800.503052,196.876984 
	C800.915588,196.706741 801.145386,196.925415 801.299561,197.494232 
z"/>
<path fill="#CC252E" opacity="1.000000" stroke="none" 
	d="
M678.671082,197.832474 
	C678.919800,197.709702 679.237610,197.784760 679.505310,198.138443 
	C679.152710,198.406876 678.914368,198.277954 678.671082,197.832474 
z"/>
<path fill="#CC252E" opacity="1.000000" stroke="none" 
	d="
M671.674805,191.802628 
	C671.928528,191.663284 672.263611,191.742157 672.585205,192.112457 
	C672.232178,192.420349 671.960327,192.292679 671.674805,191.802628 
z"/>
<path fill="#CC252E" opacity="1.000000" stroke="none" 
	d="
M786.334839,178.351898 
	C786.061462,178.450150 785.736145,178.309433 785.453369,177.877426 
	C785.848633,177.626556 786.111023,177.802155 786.334839,178.351898 
z"/>
<path fill="#CC252E" opacity="1.000000" stroke="none" 
	d="
M780.343018,171.234741 
	C780.084412,171.343842 779.762573,171.245346 779.502136,170.864624 
	C779.875916,170.612167 780.114624,170.760422 780.343018,171.234741 
z"/>
<path fill="#CC252E" opacity="1.000000" stroke="none" 
	d="
M771.350342,161.231491 
	C771.094788,161.332367 770.776794,161.236099 770.537781,160.862823 
	C770.907227,160.635498 771.130920,160.785019 771.350342,161.231491 
z"/>
<path fill="#CC252E" opacity="1.000000" stroke="none" 
	d="
M770.342896,160.171753 
	C770.088318,160.282913 769.772766,160.204727 769.539673,159.852264 
	C769.906921,159.607025 770.126831,159.741821 770.342896,160.171753 
z"/>
<path fill="#CC252E" opacity="1.000000" stroke="none" 
	d="
M769.364380,159.180313 
	C769.108459,159.274307 768.806091,159.194672 768.623352,158.860168 
	C768.995667,158.651566 769.187317,158.785355 769.364380,159.180313 
z"/>
<path fill="#CC252E" opacity="1.000000" stroke="none" 
	d="
M187.363312,684.333740 
	C187.091965,684.413025 186.781967,684.277222 186.563095,683.868835 
	C186.960266,683.664307 187.183746,683.838440 187.363312,684.333740 
z"/>
<path fill="#CC252E" opacity="1.000000" stroke="none" 
	d="
M225.275314,721.317200 
	C225.032272,721.451050 224.687439,721.349060 224.305298,720.955811 
	C224.569839,720.803467 224.871689,720.942444 225.275314,721.317200 
z"/>
<path fill="#CC252E" opacity="1.000000" stroke="none" 
	d="
M690.333984,704.644836 
	C690.411743,704.913696 690.273987,705.220520 689.864624,705.439575 
	C689.661499,705.045105 689.836670,704.822144 690.333984,704.644836 
z"/>
<path fill="#CC252E" opacity="1.000000" stroke="none" 
	d="
M691.278442,703.677124 
	C691.398010,703.935669 691.289490,704.266663 690.890991,704.579102 
	C690.608704,704.211426 690.758484,703.941101 691.278442,703.677124 
z"/>
<path fill="#CC252E" opacity="1.000000" stroke="none" 
	d="
M206.344849,704.236328 
	C206.081223,704.351990 205.753403,704.252869 205.479401,703.865601 
	C205.857422,703.599182 206.106552,703.747192 206.344849,704.236328 
z"/>
<path fill="#CC252E" opacity="1.000000" stroke="none" 
	d="
M202.349182,700.244873 
	C202.086334,700.351868 201.764511,700.248535 201.508209,699.862793 
	C201.887726,699.613098 202.126556,699.764465 202.349182,700.244873 
z"/>
<path fill="#CC252E" opacity="1.000000" stroke="none" 
	d="
M201.321533,699.197083 
	C201.071136,699.331116 200.740219,699.252808 200.429993,698.886353 
	C200.780457,698.591370 201.043915,698.720215 201.321533,699.197083 
z"/>
<path fill="#CC252E" opacity="1.000000" stroke="none" 
	d="
M697.274109,697.680298 
	C697.394958,697.931274 697.293701,698.266663 696.899902,698.588684 
	C696.624695,698.233398 696.772888,697.963135 697.274109,697.680298 
z"/>
<path fill="#CC252E" opacity="1.000000" stroke="none" 
	d="
M200.347076,698.313232 
	C200.075119,698.404602 199.758560,698.274658 199.515869,697.864380 
	C199.914398,697.631104 200.151978,697.800354 200.347076,698.313232 
z"/>
<path fill="#CC252E" opacity="1.000000" stroke="none" 
	d="
M199.336563,697.202148 
	C199.083984,697.311707 198.766418,697.224976 198.517639,696.860352 
	C198.881683,696.615356 199.110062,696.756409 199.336563,697.202148 
z"/>
<path fill="#CC252E" opacity="1.000000" stroke="none" 
	d="
M152.674393,778.786621 
	C152.920624,778.682007 153.239319,778.771423 153.492767,779.140015 
	C153.136993,779.371826 152.910095,779.225708 152.674393,778.786621 
z"/>
<path fill="#CC252E" opacity="1.000000" stroke="none" 
	d="
M780.773987,741.326294 
	C780.649231,741.072876 780.740845,740.738647 781.125488,740.430969 
	C781.408386,740.792297 781.265686,741.054932 780.773987,741.326294 
z"/>
<path fill="#CC252E" opacity="1.000000" stroke="none" 
	d="
M116.638824,741.646301 
	C116.912170,741.573608 117.216614,741.718018 117.425873,742.131592 
	C117.022926,742.329285 116.802673,742.150208 116.638824,741.646301 
z"/>
<path fill="#CC252E" opacity="1.000000" stroke="none" 
	d="
M772.915527,750.266907 
	C772.779236,750.038147 772.822388,749.728088 773.140381,749.454834 
	C773.425232,749.776733 773.318420,750.008118 772.915527,750.266907 
z"/>
<path fill="#CC252E" opacity="1.000000" stroke="none" 
	d="
M886.836792,449.761658 
	C886.644043,449.741669 886.537659,449.460510 886.581055,449.082153 
	C886.794983,449.156799 886.859070,449.328613 886.836792,449.761658 
z"/>
<path fill="#CC252E" opacity="1.000000" stroke="none" 
	d="
M710.007690,229.284027 
	C710.241638,229.205963 710.529541,229.395630 710.883789,229.843536 
	C710.653992,229.918442 710.357849,229.735107 710.007690,229.284027 
z"/>
<path fill="#CC252E" opacity="1.000000" stroke="none" 
	d="
M149.696716,775.924744 
	C149.934265,775.801697 150.236588,775.845581 150.456970,776.156067 
	C150.117020,776.411560 149.912506,776.301208 149.696716,775.924744 
z"/>
<path fill="#CC252E" opacity="1.000000" stroke="none" 
	d="
M150.656799,776.827148 
	C150.912048,776.713928 151.227264,776.792542 151.464264,777.146057 
	C151.096832,777.397156 150.873734,777.263123 150.656799,776.827148 
z"/>
<path fill="#CC252E" opacity="1.000000" stroke="none" 
	d="
M151.662476,777.823120 
	C151.915909,777.707031 152.233917,777.785828 152.483551,778.143127 
	C152.119705,778.399841 151.890320,778.265320 151.662476,777.823120 
z"/>
</svg>